ISO-10303-21;
HEADER;
/* Generated by software containing ST-Developer
 * from STEP Tools, Inc. (www.steptools.com) 
 */
/* OPTION: using custom renumber hook */

FILE_DESCRIPTION(
/* description */ ('STEP AP242',
'CAx-IF Rec.Pracs.---Representation and Presentation of Product Manufa
cturing Information (PMI)---4.0---2014-10-13',
'CAx-IF Rec.Pracs.---3D Tessellated Geometry---0.4---2014-09-14','2;1'),

/* implementation_level */ '2;1');

FILE_NAME(
/* name */ '6564dd8617da242ed3e34669',
/* time_stamp */ '2023-11-27T18:18:47Z',
/* author */ (''),
/* organization */ (''),
/* preprocessor_version */ 'ST-DEVELOPER v19.4',
/* originating_system */ '  ',
/* authorisation */ '  ');

FILE_SCHEMA (('AP242_MANAGED_MODEL_BASED_3D_ENGINEERING_MIM_LF { 1 0 10303 442 1 1 4 }'));
ENDSEC;

DATA;
#10=SHAPE_REPRESENTATION_RELATIONSHIP('','',#1345,#11);
#11=ADVANCED_BREP_SHAPE_REPRESENTATION('',(#1343),#2227);
#12=CYLINDRICAL_SURFACE('',#1385,0.039);
#13=CYLINDRICAL_SURFACE('',#1387,0.039);
#14=CYLINDRICAL_SURFACE('',#1390,0.0021);
#15=CYLINDRICAL_SURFACE('',#1392,0.0021);
#16=CYLINDRICAL_SURFACE('',#1395,0.0021);
#17=CYLINDRICAL_SURFACE('',#1407,0.0021);
#18=CYLINDRICAL_SURFACE('',#1412,0.0155);
#19=CYLINDRICAL_SURFACE('',#1431,0.0015);
#20=CYLINDRICAL_SURFACE('',#1432,0.0015);
#21=CYLINDRICAL_SURFACE('',#1433,0.0015);
#22=CYLINDRICAL_SURFACE('',#1434,0.0015);
#23=CYLINDRICAL_SURFACE('',#1435,0.002);
#24=CYLINDRICAL_SURFACE('',#1437,0.002);
#25=CYLINDRICAL_SURFACE('',#1439,0.002);
#26=CYLINDRICAL_SURFACE('',#1441,0.002);
#27=CYLINDRICAL_SURFACE('',#1443,0.002);
#28=CYLINDRICAL_SURFACE('',#1445,0.002);
#29=CYLINDRICAL_SURFACE('',#1447,0.002);
#30=CYLINDRICAL_SURFACE('',#1449,0.002);
#31=CYLINDRICAL_SURFACE('',#1451,0.002);
#32=CYLINDRICAL_SURFACE('',#1453,0.002);
#33=CYLINDRICAL_SURFACE('',#1455,0.002);
#34=CYLINDRICAL_SURFACE('',#1458,0.002);
#35=CYLINDRICAL_SURFACE('',#1460,0.002);
#36=CYLINDRICAL_SURFACE('',#1462,0.002);
#37=CYLINDRICAL_SURFACE('',#1464,0.002);
#38=CYLINDRICAL_SURFACE('',#1466,0.002);
#39=CYLINDRICAL_SURFACE('',#1468,0.002);
#40=CYLINDRICAL_SURFACE('',#1470,0.002);
#41=CIRCLE('',#1348,0.002);
#42=CIRCLE('',#1349,0.002);
#43=CIRCLE('',#1350,0.002);
#44=CIRCLE('',#1351,0.002);
#45=CIRCLE('',#1352,0.002);
#46=CIRCLE('',#1353,0.002);
#47=CIRCLE('',#1354,0.002);
#48=CIRCLE('',#1356,0.002);
#49=CIRCLE('',#1357,0.002);
#50=CIRCLE('',#1358,0.002);
#51=CIRCLE('',#1359,0.002);
#52=CIRCLE('',#1360,0.002);
#53=CIRCLE('',#1361,0.002);
#54=CIRCLE('',#1362,0.002);
#55=CIRCLE('',#1364,0.002);
#56=CIRCLE('',#1365,0.002);
#57=CIRCLE('',#1366,0.002);
#58=CIRCLE('',#1367,0.002);
#59=CIRCLE('',#1368,0.002);
#60=CIRCLE('',#1369,0.002);
#61=CIRCLE('',#1370,0.002);
#62=CIRCLE('',#1372,0.002);
#63=CIRCLE('',#1373,0.002);
#64=CIRCLE('',#1374,0.002);
#65=CIRCLE('',#1375,0.002);
#66=CIRCLE('',#1376,0.002);
#67=CIRCLE('',#1377,0.002);
#68=CIRCLE('',#1378,0.002);
#69=CIRCLE('',#1382,0.0021);
#70=CIRCLE('',#1383,0.0021);
#71=CIRCLE('',#1384,0.039);
#72=CIRCLE('',#1386,0.039);
#73=CIRCLE('',#1388,0.039);
#74=CIRCLE('',#1389,0.039);
#75=CIRCLE('',#1391,0.0021);
#76=CIRCLE('',#1393,0.0021);
#77=CIRCLE('',#1394,0.0021);
#78=CIRCLE('',#1396,0.0021);
#79=CIRCLE('',#1397,0.0021);
#80=CIRCLE('',#1399,0.002);
#81=CIRCLE('',#1400,0.002);
#82=CIRCLE('',#1401,0.002);
#83=CIRCLE('',#1402,0.002);
#84=CIRCLE('',#1403,0.0015);
#85=CIRCLE('',#1404,0.0015);
#86=CIRCLE('',#1405,0.0015);
#87=CIRCLE('',#1406,0.0015);
#88=CIRCLE('',#1408,0.0021);
#89=CIRCLE('',#1410,0.0155);
#90=CIRCLE('',#1413,0.0155);
#91=CIRCLE('',#1420,0.002);
#92=CIRCLE('',#1421,0.002);
#93=CIRCLE('',#1422,0.002);
#94=CIRCLE('',#1423,0.002);
#95=CIRCLE('',#1424,0.0015);
#96=CIRCLE('',#1425,0.0015);
#97=CIRCLE('',#1426,0.0015);
#98=CIRCLE('',#1427,0.0015);
#99=ORIENTED_EDGE('',*,*,#467,.F.);
#100=ORIENTED_EDGE('',*,*,#468,.T.);
#101=ORIENTED_EDGE('',*,*,#469,.T.);
#102=ORIENTED_EDGE('',*,*,#470,.T.);
#103=ORIENTED_EDGE('',*,*,#471,.T.);
#104=ORIENTED_EDGE('',*,*,#472,.T.);
#105=ORIENTED_EDGE('',*,*,#473,.F.);
#106=ORIENTED_EDGE('',*,*,#474,.T.);
#107=ORIENTED_EDGE('',*,*,#475,.F.);
#108=ORIENTED_EDGE('',*,*,#476,.T.);
#109=ORIENTED_EDGE('',*,*,#477,.T.);
#110=ORIENTED_EDGE('',*,*,#478,.F.);
#111=ORIENTED_EDGE('',*,*,#479,.F.);
#112=ORIENTED_EDGE('',*,*,#480,.T.);
#113=ORIENTED_EDGE('',*,*,#481,.F.);
#114=ORIENTED_EDGE('',*,*,#482,.T.);
#115=ORIENTED_EDGE('',*,*,#483,.T.);
#116=ORIENTED_EDGE('',*,*,#484,.T.);
#117=ORIENTED_EDGE('',*,*,#485,.F.);
#118=ORIENTED_EDGE('',*,*,#486,.F.);
#119=ORIENTED_EDGE('',*,*,#487,.F.);
#120=ORIENTED_EDGE('',*,*,#488,.T.);
#121=ORIENTED_EDGE('',*,*,#489,.F.);
#122=ORIENTED_EDGE('',*,*,#490,.T.);
#123=ORIENTED_EDGE('',*,*,#491,.T.);
#124=ORIENTED_EDGE('',*,*,#492,.F.);
#125=ORIENTED_EDGE('',*,*,#493,.F.);
#126=ORIENTED_EDGE('',*,*,#494,.T.);
#127=ORIENTED_EDGE('',*,*,#495,.F.);
#128=ORIENTED_EDGE('',*,*,#496,.T.);
#129=ORIENTED_EDGE('',*,*,#497,.F.);
#130=ORIENTED_EDGE('',*,*,#498,.F.);
#131=ORIENTED_EDGE('',*,*,#499,.F.);
#132=ORIENTED_EDGE('',*,*,#500,.F.);
#133=ORIENTED_EDGE('',*,*,#501,.F.);
#134=ORIENTED_EDGE('',*,*,#502,.T.);
#135=ORIENTED_EDGE('',*,*,#503,.T.);
#136=ORIENTED_EDGE('',*,*,#504,.T.);
#137=ORIENTED_EDGE('',*,*,#505,.F.);
#138=ORIENTED_EDGE('',*,*,#506,.F.);
#139=ORIENTED_EDGE('',*,*,#507,.F.);
#140=ORIENTED_EDGE('',*,*,#508,.T.);
#141=ORIENTED_EDGE('',*,*,#509,.T.);
#142=ORIENTED_EDGE('',*,*,#510,.T.);
#143=ORIENTED_EDGE('',*,*,#511,.T.);
#144=ORIENTED_EDGE('',*,*,#512,.T.);
#145=ORIENTED_EDGE('',*,*,#513,.F.);
#146=ORIENTED_EDGE('',*,*,#514,.T.);
#147=ORIENTED_EDGE('',*,*,#515,.F.);
#148=ORIENTED_EDGE('',*,*,#516,.T.);
#149=ORIENTED_EDGE('',*,*,#517,.T.);
#150=ORIENTED_EDGE('',*,*,#518,.F.);
#151=ORIENTED_EDGE('',*,*,#519,.F.);
#152=ORIENTED_EDGE('',*,*,#520,.T.);
#153=ORIENTED_EDGE('',*,*,#521,.T.);
#154=ORIENTED_EDGE('',*,*,#522,.T.);
#155=ORIENTED_EDGE('',*,*,#523,.F.);
#156=ORIENTED_EDGE('',*,*,#524,.F.);
#157=ORIENTED_EDGE('',*,*,#525,.F.);
#158=ORIENTED_EDGE('',*,*,#526,.T.);
#159=ORIENTED_EDGE('',*,*,#527,.T.);
#160=ORIENTED_EDGE('',*,*,#528,.F.);
#161=ORIENTED_EDGE('',*,*,#529,.F.);
#162=ORIENTED_EDGE('',*,*,#530,.T.);
#163=ORIENTED_EDGE('',*,*,#531,.F.);
#164=ORIENTED_EDGE('',*,*,#532,.T.);
#165=ORIENTED_EDGE('',*,*,#533,.F.);
#166=ORIENTED_EDGE('',*,*,#534,.F.);
#167=ORIENTED_EDGE('',*,*,#535,.F.);
#168=ORIENTED_EDGE('',*,*,#536,.F.);
#169=ORIENTED_EDGE('',*,*,#537,.F.);
#170=ORIENTED_EDGE('',*,*,#538,.T.);
#171=ORIENTED_EDGE('',*,*,#539,.T.);
#172=ORIENTED_EDGE('',*,*,#540,.T.);
#173=ORIENTED_EDGE('',*,*,#541,.F.);
#174=ORIENTED_EDGE('',*,*,#542,.F.);
#175=ORIENTED_EDGE('',*,*,#543,.T.);
#176=ORIENTED_EDGE('',*,*,#487,.T.);
#177=ORIENTED_EDGE('',*,*,#544,.T.);
#178=ORIENTED_EDGE('',*,*,#545,.F.);
#179=ORIENTED_EDGE('',*,*,#546,.F.);
#180=ORIENTED_EDGE('',*,*,#547,.T.);
#181=ORIENTED_EDGE('',*,*,#548,.T.);
#182=ORIENTED_EDGE('',*,*,#476,.F.);
#183=ORIENTED_EDGE('',*,*,#549,.T.);
#184=ORIENTED_EDGE('',*,*,#525,.T.);
#185=ORIENTED_EDGE('',*,*,#550,.T.);
#186=ORIENTED_EDGE('',*,*,#516,.F.);
#187=ORIENTED_EDGE('',*,*,#550,.F.);
#188=ORIENTED_EDGE('',*,*,#528,.T.);
#189=ORIENTED_EDGE('',*,*,#551,.T.);
#190=ORIENTED_EDGE('',*,*,#517,.F.);
#191=ORIENTED_EDGE('',*,*,#552,.T.);
#192=ORIENTED_EDGE('',*,*,#553,.T.);
#193=ORIENTED_EDGE('',*,*,#477,.F.);
#194=ORIENTED_EDGE('',*,*,#548,.F.);
#195=ORIENTED_EDGE('',*,*,#554,.F.);
#196=ORIENTED_EDGE('',*,*,#555,.T.);
#197=ORIENTED_EDGE('',*,*,#554,.T.);
#198=ORIENTED_EDGE('',*,*,#547,.F.);
#199=ORIENTED_EDGE('',*,*,#556,.F.);
#200=ORIENTED_EDGE('',*,*,#557,.T.);
#201=ORIENTED_EDGE('',*,*,#558,.T.);
#202=ORIENTED_EDGE('',*,*,#559,.F.);
#203=ORIENTED_EDGE('',*,*,#560,.F.);
#204=ORIENTED_EDGE('',*,*,#545,.T.);
#205=ORIENTED_EDGE('',*,*,#561,.T.);
#206=ORIENTED_EDGE('',*,*,#553,.F.);
#207=ORIENTED_EDGE('',*,*,#562,.T.);
#208=ORIENTED_EDGE('',*,*,#563,.F.);
#209=ORIENTED_EDGE('',*,*,#564,.T.);
#210=ORIENTED_EDGE('',*,*,#565,.F.);
#211=ORIENTED_EDGE('',*,*,#566,.T.);
#212=ORIENTED_EDGE('',*,*,#567,.T.);
#213=ORIENTED_EDGE('',*,*,#568,.T.);
#214=ORIENTED_EDGE('',*,*,#569,.T.);
#215=ORIENTED_EDGE('',*,*,#570,.T.);
#216=ORIENTED_EDGE('',*,*,#571,.T.);
#217=ORIENTED_EDGE('',*,*,#572,.T.);
#218=ORIENTED_EDGE('',*,*,#573,.T.);
#219=ORIENTED_EDGE('',*,*,#574,.F.);
#220=ORIENTED_EDGE('',*,*,#575,.F.);
#221=ORIENTED_EDGE('',*,*,#576,.F.);
#222=ORIENTED_EDGE('',*,*,#577,.F.);
#223=ORIENTED_EDGE('',*,*,#578,.T.);
#224=ORIENTED_EDGE('',*,*,#579,.T.);
#225=ORIENTED_EDGE('',*,*,#559,.T.);
#226=ORIENTED_EDGE('',*,*,#580,.F.);
#227=ORIENTED_EDGE('',*,*,#491,.F.);
#228=ORIENTED_EDGE('',*,*,#581,.F.);
#229=ORIENTED_EDGE('',*,*,#478,.T.);
#230=ORIENTED_EDGE('',*,*,#555,.F.);
#231=ORIENTED_EDGE('',*,*,#557,.F.);
#232=ORIENTED_EDGE('',*,*,#582,.T.);
#233=ORIENTED_EDGE('',*,*,#583,.F.);
#234=ORIENTED_EDGE('',*,*,#584,.F.);
#235=ORIENTED_EDGE('',*,*,#585,.T.);
#236=ORIENTED_EDGE('',*,*,#552,.F.);
#237=ORIENTED_EDGE('',*,*,#586,.F.);
#238=ORIENTED_EDGE('',*,*,#587,.F.);
#239=ORIENTED_EDGE('',*,*,#588,.F.);
#240=ORIENTED_EDGE('',*,*,#582,.F.);
#241=ORIENTED_EDGE('',*,*,#556,.T.);
#242=ORIENTED_EDGE('',*,*,#546,.T.);
#243=ORIENTED_EDGE('',*,*,#560,.T.);
#244=ORIENTED_EDGE('',*,*,#579,.F.);
#245=ORIENTED_EDGE('',*,*,#564,.F.);
#246=ORIENTED_EDGE('',*,*,#562,.F.);
#247=ORIENTED_EDGE('',*,*,#561,.F.);
#248=ORIENTED_EDGE('',*,*,#585,.F.);
#249=ORIENTED_EDGE('',*,*,#544,.F.);
#250=ORIENTED_EDGE('',*,*,#492,.T.);
#251=ORIENTED_EDGE('',*,*,#580,.T.);
#252=ORIENTED_EDGE('',*,*,#558,.F.);
#253=ORIENTED_EDGE('',*,*,#565,.T.);
#254=ORIENTED_EDGE('',*,*,#563,.T.);
#255=ORIENTED_EDGE('',*,*,#587,.T.);
#256=ORIENTED_EDGE('',*,*,#589,.T.);
#257=ORIENTED_EDGE('',*,*,#590,.F.);
#258=ORIENTED_EDGE('',*,*,#591,.T.);
#259=ORIENTED_EDGE('',*,*,#592,.F.);
#260=ORIENTED_EDGE('',*,*,#593,.F.);
#261=ORIENTED_EDGE('',*,*,#594,.F.);
#262=ORIENTED_EDGE('',*,*,#590,.T.);
#263=ORIENTED_EDGE('',*,*,#586,.T.);
#264=ORIENTED_EDGE('',*,*,#578,.F.);
#265=ORIENTED_EDGE('',*,*,#595,.F.);
#266=ORIENTED_EDGE('',*,*,#596,.T.);
#267=ORIENTED_EDGE('',*,*,#592,.T.);
#268=ORIENTED_EDGE('',*,*,#589,.F.);
#269=ORIENTED_EDGE('',*,*,#594,.T.);
#270=ORIENTED_EDGE('',*,*,#597,.F.);
#271=ORIENTED_EDGE('',*,*,#598,.F.);
#272=ORIENTED_EDGE('',*,*,#583,.T.);
#273=ORIENTED_EDGE('',*,*,#588,.T.);
#274=ORIENTED_EDGE('',*,*,#591,.F.);
#275=ORIENTED_EDGE('',*,*,#593,.T.);
#276=ORIENTED_EDGE('',*,*,#596,.F.);
#277=ORIENTED_EDGE('',*,*,#599,.F.);
#278=ORIENTED_EDGE('',*,*,#597,.T.);
#279=ORIENTED_EDGE('',*,*,#584,.T.);
#280=ORIENTED_EDGE('',*,*,#598,.T.);
#281=ORIENTED_EDGE('',*,*,#599,.T.);
#282=ORIENTED_EDGE('',*,*,#595,.T.);
#283=ORIENTED_EDGE('',*,*,#600,.F.);
#284=ORIENTED_EDGE('',*,*,#601,.F.);
#285=ORIENTED_EDGE('',*,*,#602,.F.);
#286=ORIENTED_EDGE('',*,*,#603,.F.);
#287=ORIENTED_EDGE('',*,*,#604,.F.);
#288=ORIENTED_EDGE('',*,*,#605,.F.);
#289=ORIENTED_EDGE('',*,*,#606,.F.);
#290=ORIENTED_EDGE('',*,*,#607,.F.);
#291=ORIENTED_EDGE('',*,*,#608,.T.);
#292=ORIENTED_EDGE('',*,*,#609,.T.);
#293=ORIENTED_EDGE('',*,*,#610,.T.);
#294=ORIENTED_EDGE('',*,*,#611,.T.);
#295=ORIENTED_EDGE('',*,*,#612,.T.);
#296=ORIENTED_EDGE('',*,*,#489,.T.);
#297=ORIENTED_EDGE('',*,*,#613,.F.);
#298=ORIENTED_EDGE('',*,*,#518,.T.);
#299=ORIENTED_EDGE('',*,*,#551,.F.);
#300=ORIENTED_EDGE('',*,*,#527,.F.);
#301=ORIENTED_EDGE('',*,*,#614,.F.);
#302=ORIENTED_EDGE('',*,*,#480,.F.);
#303=ORIENTED_EDGE('',*,*,#612,.F.);
#304=ORIENTED_EDGE('',*,*,#479,.T.);
#305=ORIENTED_EDGE('',*,*,#581,.T.);
#306=ORIENTED_EDGE('',*,*,#490,.F.);
#307=ORIENTED_EDGE('',*,*,#515,.T.);
#308=ORIENTED_EDGE('',*,*,#613,.T.);
#309=ORIENTED_EDGE('',*,*,#488,.F.);
#310=ORIENTED_EDGE('',*,*,#543,.F.);
#311=ORIENTED_EDGE('',*,*,#475,.T.);
#312=ORIENTED_EDGE('',*,*,#614,.T.);
#313=ORIENTED_EDGE('',*,*,#526,.F.);
#314=ORIENTED_EDGE('',*,*,#549,.F.);
#315=ORIENTED_EDGE('',*,*,#611,.F.);
#316=ORIENTED_EDGE('',*,*,#577,.T.);
#317=ORIENTED_EDGE('',*,*,#610,.F.);
#318=ORIENTED_EDGE('',*,*,#576,.T.);
#319=ORIENTED_EDGE('',*,*,#609,.F.);
#320=ORIENTED_EDGE('',*,*,#575,.T.);
#321=ORIENTED_EDGE('',*,*,#608,.F.);
#322=ORIENTED_EDGE('',*,*,#574,.T.);
#323=ORIENTED_EDGE('',*,*,#615,.T.);
#324=ORIENTED_EDGE('',*,*,#600,.T.);
#325=ORIENTED_EDGE('',*,*,#616,.F.);
#326=ORIENTED_EDGE('',*,*,#566,.F.);
#327=ORIENTED_EDGE('',*,*,#617,.T.);
#328=ORIENTED_EDGE('',*,*,#601,.T.);
#329=ORIENTED_EDGE('',*,*,#615,.F.);
#330=ORIENTED_EDGE('',*,*,#573,.F.);
#331=ORIENTED_EDGE('',*,*,#618,.T.);
#332=ORIENTED_EDGE('',*,*,#602,.T.);
#333=ORIENTED_EDGE('',*,*,#617,.F.);
#334=ORIENTED_EDGE('',*,*,#572,.F.);
#335=ORIENTED_EDGE('',*,*,#619,.T.);
#336=ORIENTED_EDGE('',*,*,#603,.T.);
#337=ORIENTED_EDGE('',*,*,#618,.F.);
#338=ORIENTED_EDGE('',*,*,#571,.F.);
#339=ORIENTED_EDGE('',*,*,#620,.T.);
#340=ORIENTED_EDGE('',*,*,#604,.T.);
#341=ORIENTED_EDGE('',*,*,#619,.F.);
#342=ORIENTED_EDGE('',*,*,#570,.F.);
#343=ORIENTED_EDGE('',*,*,#621,.T.);
#344=ORIENTED_EDGE('',*,*,#605,.T.);
#345=ORIENTED_EDGE('',*,*,#620,.F.);
#346=ORIENTED_EDGE('',*,*,#569,.F.);
#347=ORIENTED_EDGE('',*,*,#622,.T.);
#348=ORIENTED_EDGE('',*,*,#606,.T.);
#349=ORIENTED_EDGE('',*,*,#621,.F.);
#350=ORIENTED_EDGE('',*,*,#568,.F.);
#351=ORIENTED_EDGE('',*,*,#616,.T.);
#352=ORIENTED_EDGE('',*,*,#607,.T.);
#353=ORIENTED_EDGE('',*,*,#622,.F.);
#354=ORIENTED_EDGE('',*,*,#567,.F.);
#355=ORIENTED_EDGE('',*,*,#623,.T.);
#356=ORIENTED_EDGE('',*,*,#529,.T.);
#357=ORIENTED_EDGE('',*,*,#624,.F.);
#358=ORIENTED_EDGE('',*,*,#468,.F.);
#359=ORIENTED_EDGE('',*,*,#624,.T.);
#360=ORIENTED_EDGE('',*,*,#536,.T.);
#361=ORIENTED_EDGE('',*,*,#625,.F.);
#362=ORIENTED_EDGE('',*,*,#469,.F.);
#363=ORIENTED_EDGE('',*,*,#625,.T.);
#364=ORIENTED_EDGE('',*,*,#535,.T.);
#365=ORIENTED_EDGE('',*,*,#626,.F.);
#366=ORIENTED_EDGE('',*,*,#470,.F.);
#367=ORIENTED_EDGE('',*,*,#626,.T.);
#368=ORIENTED_EDGE('',*,*,#534,.T.);
#369=ORIENTED_EDGE('',*,*,#627,.F.);
#370=ORIENTED_EDGE('',*,*,#471,.F.);
#371=ORIENTED_EDGE('',*,*,#627,.T.);
#372=ORIENTED_EDGE('',*,*,#533,.T.);
#373=ORIENTED_EDGE('',*,*,#628,.F.);
#374=ORIENTED_EDGE('',*,*,#472,.F.);
#375=ORIENTED_EDGE('',*,*,#473,.T.);
#376=ORIENTED_EDGE('',*,*,#628,.T.);
#377=ORIENTED_EDGE('',*,*,#532,.F.);
#378=ORIENTED_EDGE('',*,*,#629,.F.);
#379=ORIENTED_EDGE('',*,*,#629,.T.);
#380=ORIENTED_EDGE('',*,*,#531,.T.);
#381=ORIENTED_EDGE('',*,*,#630,.F.);
#382=ORIENTED_EDGE('',*,*,#474,.F.);
#383=ORIENTED_EDGE('',*,*,#467,.T.);
#384=ORIENTED_EDGE('',*,*,#630,.T.);
#385=ORIENTED_EDGE('',*,*,#530,.F.);
#386=ORIENTED_EDGE('',*,*,#623,.F.);
#387=ORIENTED_EDGE('',*,*,#631,.T.);
#388=ORIENTED_EDGE('',*,*,#537,.T.);
#389=ORIENTED_EDGE('',*,*,#632,.F.);
#390=ORIENTED_EDGE('',*,*,#482,.F.);
#391=ORIENTED_EDGE('',*,*,#632,.T.);
#392=ORIENTED_EDGE('',*,*,#542,.T.);
#393=ORIENTED_EDGE('',*,*,#633,.F.);
#394=ORIENTED_EDGE('',*,*,#483,.F.);
#395=ORIENTED_EDGE('',*,*,#633,.T.);
#396=ORIENTED_EDGE('',*,*,#541,.T.);
#397=ORIENTED_EDGE('',*,*,#634,.F.);
#398=ORIENTED_EDGE('',*,*,#484,.F.);
#399=ORIENTED_EDGE('',*,*,#485,.T.);
#400=ORIENTED_EDGE('',*,*,#634,.T.);
#401=ORIENTED_EDGE('',*,*,#540,.F.);
#402=ORIENTED_EDGE('',*,*,#635,.F.);
#403=ORIENTED_EDGE('',*,*,#486,.T.);
#404=ORIENTED_EDGE('',*,*,#635,.T.);
#405=ORIENTED_EDGE('',*,*,#539,.F.);
#406=ORIENTED_EDGE('',*,*,#636,.F.);
#407=ORIENTED_EDGE('',*,*,#481,.T.);
#408=ORIENTED_EDGE('',*,*,#636,.T.);
#409=ORIENTED_EDGE('',*,*,#538,.F.);
#410=ORIENTED_EDGE('',*,*,#631,.F.);
#411=ORIENTED_EDGE('',*,*,#507,.T.);
#412=ORIENTED_EDGE('',*,*,#637,.T.);
#413=ORIENTED_EDGE('',*,*,#494,.F.);
#414=ORIENTED_EDGE('',*,*,#638,.F.);
#415=ORIENTED_EDGE('',*,*,#639,.T.);
#416=ORIENTED_EDGE('',*,*,#495,.T.);
#417=ORIENTED_EDGE('',*,*,#637,.F.);
#418=ORIENTED_EDGE('',*,*,#514,.F.);
#419=ORIENTED_EDGE('',*,*,#513,.T.);
#420=ORIENTED_EDGE('',*,*,#640,.T.);
#421=ORIENTED_EDGE('',*,*,#496,.F.);
#422=ORIENTED_EDGE('',*,*,#639,.F.);
#423=ORIENTED_EDGE('',*,*,#641,.T.);
#424=ORIENTED_EDGE('',*,*,#497,.T.);
#425=ORIENTED_EDGE('',*,*,#640,.F.);
#426=ORIENTED_EDGE('',*,*,#512,.F.);
#427=ORIENTED_EDGE('',*,*,#642,.T.);
#428=ORIENTED_EDGE('',*,*,#498,.T.);
#429=ORIENTED_EDGE('',*,*,#641,.F.);
#430=ORIENTED_EDGE('',*,*,#511,.F.);
#431=ORIENTED_EDGE('',*,*,#643,.T.);
#432=ORIENTED_EDGE('',*,*,#499,.T.);
#433=ORIENTED_EDGE('',*,*,#642,.F.);
#434=ORIENTED_EDGE('',*,*,#510,.F.);
#435=ORIENTED_EDGE('',*,*,#644,.T.);
#436=ORIENTED_EDGE('',*,*,#500,.T.);
#437=ORIENTED_EDGE('',*,*,#643,.F.);
#438=ORIENTED_EDGE('',*,*,#509,.F.);
#439=ORIENTED_EDGE('',*,*,#638,.T.);
#440=ORIENTED_EDGE('',*,*,#493,.T.);
#441=ORIENTED_EDGE('',*,*,#644,.F.);
#442=ORIENTED_EDGE('',*,*,#508,.F.);
#443=ORIENTED_EDGE('',*,*,#519,.T.);
#444=ORIENTED_EDGE('',*,*,#645,.T.);
#445=ORIENTED_EDGE('',*,*,#502,.F.);
#446=ORIENTED_EDGE('',*,*,#646,.F.);
#447=ORIENTED_EDGE('',*,*,#524,.T.);
#448=ORIENTED_EDGE('',*,*,#647,.T.);
#449=ORIENTED_EDGE('',*,*,#503,.F.);
#450=ORIENTED_EDGE('',*,*,#645,.F.);
#451=ORIENTED_EDGE('',*,*,#523,.T.);
#452=ORIENTED_EDGE('',*,*,#648,.T.);
#453=ORIENTED_EDGE('',*,*,#504,.F.);
#454=ORIENTED_EDGE('',*,*,#647,.F.);
#455=ORIENTED_EDGE('',*,*,#649,.T.);
#456=ORIENTED_EDGE('',*,*,#505,.T.);
#457=ORIENTED_EDGE('',*,*,#648,.F.);
#458=ORIENTED_EDGE('',*,*,#522,.F.);
#459=ORIENTED_EDGE('',*,*,#650,.T.);
#460=ORIENTED_EDGE('',*,*,#506,.T.);
#461=ORIENTED_EDGE('',*,*,#649,.F.);
#462=ORIENTED_EDGE('',*,*,#521,.F.);
#463=ORIENTED_EDGE('',*,*,#646,.T.);
#464=ORIENTED_EDGE('',*,*,#501,.T.);
#465=ORIENTED_EDGE('',*,*,#650,.F.);
#466=ORIENTED_EDGE('',*,*,#520,.F.);
#467=EDGE_CURVE('',#651,#652,#779,.T.);
#468=EDGE_CURVE('',#651,#653,#41,.T.);
#469=EDGE_CURVE('',#653,#654,#780,.T.);
#470=EDGE_CURVE('',#654,#655,#42,.T.);
#471=EDGE_CURVE('',#655,#656,#781,.T.);
#472=EDGE_CURVE('',#656,#657,#43,.T.);
#473=EDGE_CURVE('',#658,#657,#782,.T.);
#474=EDGE_CURVE('',#658,#652,#44,.T.);
#475=EDGE_CURVE('',#659,#660,#783,.T.);
#476=EDGE_CURVE('',#659,#661,#784,.T.);
#477=EDGE_CURVE('',#661,#662,#785,.T.);
#478=EDGE_CURVE('',#663,#662,#786,.T.);
#479=EDGE_CURVE('',#664,#663,#787,.T.);
#480=EDGE_CURVE('',#664,#660,#788,.T.);
#481=EDGE_CURVE('',#665,#666,#789,.T.);
#482=EDGE_CURVE('',#665,#667,#45,.T.);
#483=EDGE_CURVE('',#667,#668,#790,.T.);
#484=EDGE_CURVE('',#668,#669,#46,.T.);
#485=EDGE_CURVE('',#670,#669,#791,.T.);
#486=EDGE_CURVE('',#666,#670,#47,.F.);
#487=EDGE_CURVE('',#671,#672,#792,.T.);
#488=EDGE_CURVE('',#671,#673,#793,.T.);
#489=EDGE_CURVE('',#674,#673,#794,.T.);
#490=EDGE_CURVE('',#674,#675,#795,.T.);
#491=EDGE_CURVE('',#675,#676,#796,.T.);
#492=EDGE_CURVE('',#672,#676,#797,.T.);
#493=EDGE_CURVE('',#677,#678,#48,.T.);
#494=EDGE_CURVE('',#677,#679,#798,.T.);
#495=EDGE_CURVE('',#680,#679,#49,.T.);
#496=EDGE_CURVE('',#680,#681,#799,.T.);
#497=EDGE_CURVE('',#682,#681,#50,.T.);
#498=EDGE_CURVE('',#683,#682,#800,.T.);
#499=EDGE_CURVE('',#684,#683,#51,.T.);
#500=EDGE_CURVE('',#678,#684,#801,.T.);
#501=EDGE_CURVE('',#685,#686,#52,.T.);
#502=EDGE_CURVE('',#685,#687,#802,.T.);
#503=EDGE_CURVE('',#687,#688,#53,.F.);
#504=EDGE_CURVE('',#688,#689,#803,.T.);
#505=EDGE_CURVE('',#690,#689,#54,.T.);
#506=EDGE_CURVE('',#686,#690,#804,.T.);
#507=EDGE_CURVE('',#691,#692,#805,.T.);
#508=EDGE_CURVE('',#691,#693,#55,.T.);
#509=EDGE_CURVE('',#693,#694,#806,.T.);
#510=EDGE_CURVE('',#694,#695,#56,.T.);
#511=EDGE_CURVE('',#695,#696,#807,.T.);
#512=EDGE_CURVE('',#696,#697,#57,.T.);
#513=EDGE_CURVE('',#698,#697,#808,.T.);
#514=EDGE_CURVE('',#698,#692,#58,.T.);
#515=EDGE_CURVE('',#699,#700,#809,.T.);
#516=EDGE_CURVE('',#699,#701,#810,.T.);
#517=EDGE_CURVE('',#701,#702,#811,.T.);
#518=EDGE_CURVE('',#700,#702,#812,.T.);
#519=EDGE_CURVE('',#703,#704,#813,.T.);
#520=EDGE_CURVE('',#703,#705,#59,.T.);
#521=EDGE_CURVE('',#705,#706,#814,.T.);
#522=EDGE_CURVE('',#706,#707,#60,.T.);
#523=EDGE_CURVE('',#708,#707,#815,.T.);
#524=EDGE_CURVE('',#704,#708,#61,.F.);
#525=EDGE_CURVE('',#709,#710,#816,.T.);
#526=EDGE_CURVE('',#709,#711,#817,.T.);
#527=EDGE_CURVE('',#711,#712,#818,.T.);
#528=EDGE_CURVE('',#710,#712,#819,.T.);
#529=EDGE_CURVE('',#713,#714,#62,.T.);
#530=EDGE_CURVE('',#713,#715,#820,.T.);
#531=EDGE_CURVE('',#716,#715,#63,.T.);
#532=EDGE_CURVE('',#716,#717,#821,.T.);
#533=EDGE_CURVE('',#718,#717,#64,.T.);
#534=EDGE_CURVE('',#719,#718,#822,.T.);
#535=EDGE_CURVE('',#720,#719,#65,.T.);
#536=EDGE_CURVE('',#714,#720,#823,.T.);
#537=EDGE_CURVE('',#721,#722,#66,.T.);
#538=EDGE_CURVE('',#721,#723,#824,.T.);
#539=EDGE_CURVE('',#723,#724,#67,.F.);
#540=EDGE_CURVE('',#724,#725,#825,.T.);
#541=EDGE_CURVE('',#726,#725,#68,.T.);
#542=EDGE_CURVE('',#722,#726,#826,.T.);
#543=EDGE_CURVE('',#699,#671,#827,.T.);
#544=EDGE_CURVE('',#672,#727,#828,.T.);
#545=EDGE_CURVE('',#728,#727,#829,.T.);
#546=EDGE_CURVE('',#729,#728,#830,.T.);
#547=EDGE_CURVE('',#729,#730,#831,.T.);
#548=EDGE_CURVE('',#730,#661,#832,.T.);
#549=EDGE_CURVE('',#659,#709,#833,.T.);
#550=EDGE_CURVE('',#710,#701,#834,.T.);
#551=EDGE_CURVE('',#712,#702,#835,.T.);
#552=EDGE_CURVE('',#731,#731,#69,.T.);
#553=EDGE_CURVE('',#732,#732,#70,.T.);
#554=EDGE_CURVE('',#733,#730,#71,.T.);
#555=EDGE_CURVE('',#733,#662,#836,.T.);
#556=EDGE_CURVE('',#734,#729,#72,.T.);
#557=EDGE_CURVE('',#734,#733,#837,.T.);
#558=EDGE_CURVE('',#727,#735,#73,.T.);
#559=EDGE_CURVE('',#736,#735,#838,.T.);
#560=EDGE_CURVE('',#728,#736,#74,.T.);
#561=EDGE_CURVE('',#737,#737,#75,.T.);
#562=EDGE_CURVE('',#738,#738,#76,.T.);
#563=EDGE_CURVE('',#739,#739,#77,.T.);
#564=EDGE_CURVE('',#740,#740,#78,.T.);
#565=EDGE_CURVE('',#741,#741,#79,.T.);
#566=EDGE_CURVE('',#742,#743,#80,.F.);
#567=EDGE_CURVE('',#743,#744,#839,.T.);
#568=EDGE_CURVE('',#744,#745,#81,.F.);
#569=EDGE_CURVE('',#745,#746,#840,.T.);
#570=EDGE_CURVE('',#746,#747,#82,.F.);
#571=EDGE_CURVE('',#747,#748,#841,.T.);
#572=EDGE_CURVE('',#748,#749,#83,.F.);
#573=EDGE_CURVE('',#749,#742,#842,.T.);
#574=EDGE_CURVE('',#750,#750,#84,.T.);
#575=EDGE_CURVE('',#751,#751,#85,.T.);
#576=EDGE_CURVE('',#752,#752,#86,.T.);
#577=EDGE_CURVE('',#753,#753,#87,.T.);
#578=EDGE_CURVE('',#754,#755,#843,.T.);
#579=EDGE_CURVE('',#755,#736,#844,.T.);
#580=EDGE_CURVE('',#676,#735,#845,.T.);
#581=EDGE_CURVE('',#663,#675,#846,.T.);
#582=EDGE_CURVE('',#734,#756,#847,.T.);
#583=EDGE_CURVE('',#757,#756,#848,.T.);
#584=EDGE_CURVE('',#754,#757,#849,.T.);
#585=EDGE_CURVE('',#758,#758,#88,.T.);
#586=EDGE_CURVE('',#759,#755,#850,.T.);
#587=EDGE_CURVE('',#760,#759,#89,.T.);
#588=EDGE_CURVE('',#756,#760,#851,.T.);
#589=EDGE_CURVE('',#759,#761,#852,.F.);
#590=EDGE_CURVE('',#762,#761,#90,.T.);
#591=EDGE_CURVE('',#762,#760,#853,.T.);
#592=EDGE_CURVE('',#763,#761,#854,.T.);
#593=EDGE_CURVE('',#764,#763,#855,.T.);
#594=EDGE_CURVE('',#762,#764,#856,.T.);
#595=EDGE_CURVE('',#765,#754,#857,.T.);
#596=EDGE_CURVE('',#765,#763,#858,.T.);
#597=EDGE_CURVE('',#766,#764,#859,.T.);
#598=EDGE_CURVE('',#757,#766,#860,.T.);
#599=EDGE_CURVE('',#766,#765,#861,.T.);
#600=EDGE_CURVE('',#767,#768,#91,.T.);
#601=EDGE_CURVE('',#769,#767,#862,.T.);
#602=EDGE_CURVE('',#770,#769,#92,.T.);
#603=EDGE_CURVE('',#771,#770,#863,.T.);
#604=EDGE_CURVE('',#772,#771,#93,.T.);
#605=EDGE_CURVE('',#773,#772,#864,.T.);
#606=EDGE_CURVE('',#774,#773,#94,.T.);
#607=EDGE_CURVE('',#768,#774,#865,.T.);
#608=EDGE_CURVE('',#775,#775,#95,.F.);
#609=EDGE_CURVE('',#776,#776,#96,.F.);
#610=EDGE_CURVE('',#777,#777,#97,.F.);
#611=EDGE_CURVE('',#778,#778,#98,.F.);
#612=EDGE_CURVE('',#664,#674,#866,.T.);
#613=EDGE_CURVE('',#700,#673,#867,.T.);
#614=EDGE_CURVE('',#660,#711,#868,.T.);
#615=EDGE_CURVE('',#742,#767,#869,.T.);
#616=EDGE_CURVE('',#743,#768,#870,.T.);
#617=EDGE_CURVE('',#749,#769,#871,.T.);
#618=EDGE_CURVE('',#748,#770,#872,.T.);
#619=EDGE_CURVE('',#747,#771,#873,.T.);
#620=EDGE_CURVE('',#746,#772,#874,.T.);
#621=EDGE_CURVE('',#745,#773,#875,.T.);
#622=EDGE_CURVE('',#744,#774,#876,.T.);
#623=EDGE_CURVE('',#651,#713,#877,.T.);
#624=EDGE_CURVE('',#653,#714,#878,.T.);
#625=EDGE_CURVE('',#654,#720,#879,.T.);
#626=EDGE_CURVE('',#655,#719,#880,.T.);
#627=EDGE_CURVE('',#656,#718,#881,.T.);
#628=EDGE_CURVE('',#657,#717,#882,.T.);
#629=EDGE_CURVE('',#658,#716,#883,.T.);
#630=EDGE_CURVE('',#652,#715,#884,.T.);
#631=EDGE_CURVE('',#665,#721,#885,.T.);
#632=EDGE_CURVE('',#667,#722,#886,.T.);
#633=EDGE_CURVE('',#668,#726,#887,.T.);
#634=EDGE_CURVE('',#669,#725,#888,.T.);
#635=EDGE_CURVE('',#670,#724,#889,.T.);
#636=EDGE_CURVE('',#666,#723,#890,.T.);
#637=EDGE_CURVE('',#692,#679,#891,.T.);
#638=EDGE_CURVE('',#691,#677,#892,.T.);
#639=EDGE_CURVE('',#698,#680,#893,.T.);
#640=EDGE_CURVE('',#697,#681,#894,.T.);
#641=EDGE_CURVE('',#696,#682,#895,.T.);
#642=EDGE_CURVE('',#695,#683,#896,.T.);
#643=EDGE_CURVE('',#694,#684,#897,.T.);
#644=EDGE_CURVE('',#693,#678,#898,.T.);
#645=EDGE_CURVE('',#704,#687,#899,.T.);
#646=EDGE_CURVE('',#703,#685,#900,.T.);
#647=EDGE_CURVE('',#708,#688,#901,.T.);
#648=EDGE_CURVE('',#707,#689,#902,.T.);
#649=EDGE_CURVE('',#706,#690,#903,.T.);
#650=EDGE_CURVE('',#705,#686,#904,.T.);
#651=VERTEX_POINT('',#1850);
#652=VERTEX_POINT('',#1851);
#653=VERTEX_POINT('',#1853);
#654=VERTEX_POINT('',#1855);
#655=VERTEX_POINT('',#1857);
#656=VERTEX_POINT('',#1859);
#657=VERTEX_POINT('',#1861);
#658=VERTEX_POINT('',#1863);
#659=VERTEX_POINT('',#1866);
#660=VERTEX_POINT('',#1867);
#661=VERTEX_POINT('',#1869);
#662=VERTEX_POINT('',#1871);
#663=VERTEX_POINT('',#1873);
#664=VERTEX_POINT('',#1875);
#665=VERTEX_POINT('',#1878);
#666=VERTEX_POINT('',#1879);
#667=VERTEX_POINT('',#1881);
#668=VERTEX_POINT('',#1883);
#669=VERTEX_POINT('',#1885);
#670=VERTEX_POINT('',#1887);
#671=VERTEX_POINT('',#1891);
#672=VERTEX_POINT('',#1892);
#673=VERTEX_POINT('',#1894);
#674=VERTEX_POINT('',#1896);
#675=VERTEX_POINT('',#1898);
#676=VERTEX_POINT('',#1900);
#677=VERTEX_POINT('',#1903);
#678=VERTEX_POINT('',#1904);
#679=VERTEX_POINT('',#1906);
#680=VERTEX_POINT('',#1908);
#681=VERTEX_POINT('',#1910);
#682=VERTEX_POINT('',#1912);
#683=VERTEX_POINT('',#1914);
#684=VERTEX_POINT('',#1916);
#685=VERTEX_POINT('',#1919);
#686=VERTEX_POINT('',#1920);
#687=VERTEX_POINT('',#1922);
#688=VERTEX_POINT('',#1924);
#689=VERTEX_POINT('',#1926);
#690=VERTEX_POINT('',#1928);
#691=VERTEX_POINT('',#1932);
#692=VERTEX_POINT('',#1933);
#693=VERTEX_POINT('',#1935);
#694=VERTEX_POINT('',#1937);
#695=VERTEX_POINT('',#1939);
#696=VERTEX_POINT('',#1941);
#697=VERTEX_POINT('',#1943);
#698=VERTEX_POINT('',#1945);
#699=VERTEX_POINT('',#1948);
#700=VERTEX_POINT('',#1949);
#701=VERTEX_POINT('',#1951);
#702=VERTEX_POINT('',#1953);
#703=VERTEX_POINT('',#1956);
#704=VERTEX_POINT('',#1957);
#705=VERTEX_POINT('',#1959);
#706=VERTEX_POINT('',#1961);
#707=VERTEX_POINT('',#1963);
#708=VERTEX_POINT('',#1965);
#709=VERTEX_POINT('',#1969);
#710=VERTEX_POINT('',#1970);
#711=VERTEX_POINT('',#1972);
#712=VERTEX_POINT('',#1974);
#713=VERTEX_POINT('',#1977);
#714=VERTEX_POINT('',#1978);
#715=VERTEX_POINT('',#1980);
#716=VERTEX_POINT('',#1982);
#717=VERTEX_POINT('',#1984);
#718=VERTEX_POINT('',#1986);
#719=VERTEX_POINT('',#1988);
#720=VERTEX_POINT('',#1990);
#721=VERTEX_POINT('',#1993);
#722=VERTEX_POINT('',#1994);
#723=VERTEX_POINT('',#1996);
#724=VERTEX_POINT('',#1998);
#725=VERTEX_POINT('',#2000);
#726=VERTEX_POINT('',#2002);
#727=VERTEX_POINT('',#2007);
#728=VERTEX_POINT('',#2009);
#729=VERTEX_POINT('',#2011);
#730=VERTEX_POINT('',#2013);
#731=VERTEX_POINT('',#2021);
#732=VERTEX_POINT('',#2023);
#733=VERTEX_POINT('',#2025);
#734=VERTEX_POINT('',#2029);
#735=VERTEX_POINT('',#2033);
#736=VERTEX_POINT('',#2035);
#737=VERTEX_POINT('',#2039);
#738=VERTEX_POINT('',#2042);
#739=VERTEX_POINT('',#2044);
#740=VERTEX_POINT('',#2047);
#741=VERTEX_POINT('',#2049);
#742=VERTEX_POINT('',#2052);
#743=VERTEX_POINT('',#2053);
#744=VERTEX_POINT('',#2055);
#745=VERTEX_POINT('',#2057);
#746=VERTEX_POINT('',#2059);
#747=VERTEX_POINT('',#2061);
#748=VERTEX_POINT('',#2063);
#749=VERTEX_POINT('',#2065);
#750=VERTEX_POINT('',#2068);
#751=VERTEX_POINT('',#2070);
#752=VERTEX_POINT('',#2072);
#753=VERTEX_POINT('',#2074);
#754=VERTEX_POINT('',#2076);
#755=VERTEX_POINT('',#2077);
#756=VERTEX_POINT('',#2082);
#757=VERTEX_POINT('',#2084);
#758=VERTEX_POINT('',#2088);
#759=VERTEX_POINT('',#2091);
#760=VERTEX_POINT('',#2093);
#761=VERTEX_POINT('',#2098);
#762=VERTEX_POINT('',#2100);
#763=VERTEX_POINT('',#2104);
#764=VERTEX_POINT('',#2106);
#765=VERTEX_POINT('',#2110);
#766=VERTEX_POINT('',#2114);
#767=VERTEX_POINT('',#2121);
#768=VERTEX_POINT('',#2122);
#769=VERTEX_POINT('',#2124);
#770=VERTEX_POINT('',#2126);
#771=VERTEX_POINT('',#2128);
#772=VERTEX_POINT('',#2130);
#773=VERTEX_POINT('',#2132);
#774=VERTEX_POINT('',#2134);
#775=VERTEX_POINT('',#2137);
#776=VERTEX_POINT('',#2139);
#777=VERTEX_POINT('',#2141);
#778=VERTEX_POINT('',#2143);
#779=LINE('',#1849,#905);
#780=LINE('',#1854,#906);
#781=LINE('',#1858,#907);
#782=LINE('',#1862,#908);
#783=LINE('',#1865,#909);
#784=LINE('',#1868,#910);
#785=LINE('',#1870,#911);
#786=LINE('',#1872,#912);
#787=LINE('',#1874,#913);
#788=LINE('',#1876,#914);
#789=LINE('',#1877,#915);
#790=LINE('',#1882,#916);
#791=LINE('',#1886,#917);
#792=LINE('',#1890,#918);
#793=LINE('',#1893,#919);
#794=LINE('',#1895,#920);
#795=LINE('',#1897,#921);
#796=LINE('',#1899,#922);
#797=LINE('',#1901,#923);
#798=LINE('',#1905,#924);
#799=LINE('',#1909,#925);
#800=LINE('',#1913,#926);
#801=LINE('',#1917,#927);
#802=LINE('',#1921,#928);
#803=LINE('',#1925,#929);
#804=LINE('',#1929,#930);
#805=LINE('',#1931,#931);
#806=LINE('',#1936,#932);
#807=LINE('',#1940,#933);
#808=LINE('',#1944,#934);
#809=LINE('',#1947,#935);
#810=LINE('',#1950,#936);
#811=LINE('',#1952,#937);
#812=LINE('',#1954,#938);
#813=LINE('',#1955,#939);
#814=LINE('',#1960,#940);
#815=LINE('',#1964,#941);
#816=LINE('',#1968,#942);
#817=LINE('',#1971,#943);
#818=LINE('',#1973,#944);
#819=LINE('',#1975,#945);
#820=LINE('',#1979,#946);
#821=LINE('',#1983,#947);
#822=LINE('',#1987,#948);
#823=LINE('',#1991,#949);
#824=LINE('',#1995,#950);
#825=LINE('',#1999,#951);
#826=LINE('',#2003,#952);
#827=LINE('',#2005,#953);
#828=LINE('',#2006,#954);
#829=LINE('',#2008,#955);
#830=LINE('',#2010,#956);
#831=LINE('',#2012,#957);
#832=LINE('',#2014,#958);
#833=LINE('',#2015,#959);
#834=LINE('',#2016,#960);
#835=LINE('',#2018,#961);
#836=LINE('',#2026,#962);
#837=LINE('',#2030,#963);
#838=LINE('',#2034,#964);
#839=LINE('',#2054,#965);
#840=LINE('',#2058,#966);
#841=LINE('',#2062,#967);
#842=LINE('',#2066,#968);
#843=LINE('',#2075,#969);
#844=LINE('',#2078,#970);
#845=LINE('',#2079,#971);
#846=LINE('',#2080,#972);
#847=LINE('',#2081,#973);
#848=LINE('',#2083,#974);
#849=LINE('',#2085,#975);
#850=LINE('',#2090,#976);
#851=LINE('',#2094,#977);
#852=LINE('',#2097,#978);
#853=LINE('',#2101,#979);
#854=LINE('',#2103,#980);
#855=LINE('',#2105,#981);
#856=LINE('',#2107,#982);
#857=LINE('',#2109,#983);
#858=LINE('',#2111,#984);
#859=LINE('',#2113,#985);
#860=LINE('',#2115,#986);
#861=LINE('',#2117,#987);
#862=LINE('',#2123,#988);
#863=LINE('',#2127,#989);
#864=LINE('',#2131,#990);
#865=LINE('',#2135,#991);
#866=LINE('',#2144,#992);
#867=LINE('',#2145,#993);
#868=LINE('',#2146,#994);
#869=LINE('',#2155,#995);
#870=LINE('',#2156,#996);
#871=LINE('',#2158,#997);
#872=LINE('',#2160,#998);
#873=LINE('',#2162,#999);
#874=LINE('',#2164,#1000);
#875=LINE('',#2166,#1001);
#876=LINE('',#2168,#1002);
#877=LINE('',#2171,#1003);
#878=LINE('',#2172,#1004);
#879=LINE('',#2174,#1005);
#880=LINE('',#2176,#1006);
#881=LINE('',#2178,#1007);
#882=LINE('',#2180,#1008);
#883=LINE('',#2182,#1009);
#884=LINE('',#2184,#1010);
#885=LINE('',#2187,#1011);
#886=LINE('',#2188,#1012);
#887=LINE('',#2190,#1013);
#888=LINE('',#2192,#1014);
#889=LINE('',#2194,#1015);
#890=LINE('',#2196,#1016);
#891=LINE('',#2199,#1017);
#892=LINE('',#2200,#1018);
#893=LINE('',#2202,#1019);
#894=LINE('',#2204,#1020);
#895=LINE('',#2206,#1021);
#896=LINE('',#2208,#1022);
#897=LINE('',#2210,#1023);
#898=LINE('',#2212,#1024);
#899=LINE('',#2215,#1025);
#900=LINE('',#2216,#1026);
#901=LINE('',#2218,#1027);
#902=LINE('',#2220,#1028);
#903=LINE('',#2222,#1029);
#904=LINE('',#2224,#1030);
#905=VECTOR('',#1475,1.);
#906=VECTOR('',#1478,1.);
#907=VECTOR('',#1481,1.);
#908=VECTOR('',#1484,1.);
#909=VECTOR('',#1487,1.);
#910=VECTOR('',#1488,1.);
#911=VECTOR('',#1489,1.);
#912=VECTOR('',#1490,1.);
#913=VECTOR('',#1491,1.);
#914=VECTOR('',#1492,1.);
#915=VECTOR('',#1493,1.);
#916=VECTOR('',#1496,1.);
#917=VECTOR('',#1499,1.);
#918=VECTOR('',#1504,1.);
#919=VECTOR('',#1505,1.);
#920=VECTOR('',#1506,1.);
#921=VECTOR('',#1507,1.);
#922=VECTOR('',#1508,1.);
#923=VECTOR('',#1509,1.);
#924=VECTOR('',#1512,1.);
#925=VECTOR('',#1515,1.);
#926=VECTOR('',#1518,1.);
#927=VECTOR('',#1521,1.);
#928=VECTOR('',#1524,1.);
#929=VECTOR('',#1527,1.);
#930=VECTOR('',#1530,1.);
#931=VECTOR('',#1533,1.);
#932=VECTOR('',#1536,1.);
#933=VECTOR('',#1539,1.);
#934=VECTOR('',#1542,1.);
#935=VECTOR('',#1545,1.);
#936=VECTOR('',#1546,1.);
#937=VECTOR('',#1547,1.);
#938=VECTOR('',#1548,1.);
#939=VECTOR('',#1549,1.);
#940=VECTOR('',#1552,1.);
#941=VECTOR('',#1555,1.);
#942=VECTOR('',#1560,1.);
#943=VECTOR('',#1561,1.);
#944=VECTOR('',#1562,1.);
#945=VECTOR('',#1563,1.);
#946=VECTOR('',#1566,1.);
#947=VECTOR('',#1569,1.);
#948=VECTOR('',#1572,1.);
#949=VECTOR('',#1575,1.);
#950=VECTOR('',#1578,1.);
#951=VECTOR('',#1581,1.);
#952=VECTOR('',#1584,1.);
#953=VECTOR('',#1587,1.);
#954=VECTOR('',#1588,1.);
#955=VECTOR('',#1589,1.);
#956=VECTOR('',#1590,1.);
#957=VECTOR('',#1591,1.);
#958=VECTOR('',#1592,1.);
#959=VECTOR('',#1593,1.);
#960=VECTOR('',#1594,1.);
#961=VECTOR('',#1597,1.);
#962=VECTOR('',#1606,1.);
#963=VECTOR('',#1611,1.);
#964=VECTOR('',#1616,1.);
#965=VECTOR('',#1639,1.);
#966=VECTOR('',#1642,1.);
#967=VECTOR('',#1645,1.);
#968=VECTOR('',#1648,1.);
#969=VECTOR('',#1657,1.);
#970=VECTOR('',#1658,1.);
#971=VECTOR('',#1659,1.);
#972=VECTOR('',#1660,1.);
#973=VECTOR('',#1661,1.);
#974=VECTOR('',#1662,1.);
#975=VECTOR('',#1663,1.);
#976=VECTOR('',#1670,1.);
#977=VECTOR('',#1673,1.);
#978=VECTOR('',#1678,1.);
#979=VECTOR('',#1681,1.);
#980=VECTOR('',#1684,1.);
#981=VECTOR('',#1685,1.);
#982=VECTOR('',#1686,1.);
#983=VECTOR('',#1689,1.);
#984=VECTOR('',#1690,1.);
#985=VECTOR('',#1693,1.);
#986=VECTOR('',#1694,1.);
#987=VECTOR('',#1697,1.);
#988=VECTOR('',#1704,1.);
#989=VECTOR('',#1707,1.);
#990=VECTOR('',#1710,1.);
#991=VECTOR('',#1713,1.);
#992=VECTOR('',#1722,1.);
#993=VECTOR('',#1723,1.);
#994=VECTOR('',#1724,1.);
#995=VECTOR('',#1741,1.);
#996=VECTOR('',#1742,1.);
#997=VECTOR('',#1745,1.);
#998=VECTOR('',#1748,1.);
#999=VECTOR('',#1751,1.);
#1000=VECTOR('',#1754,1.);
#1001=VECTOR('',#1757,1.);
#1002=VECTOR('',#1760,1.);
#1003=VECTOR('',#1765,1.);
#1004=VECTOR('',#1766,1.);
#1005=VECTOR('',#1769,1.);
#1006=VECTOR('',#1772,1.);
#1007=VECTOR('',#1775,1.);
#1008=VECTOR('',#1778,1.);
#1009=VECTOR('',#1781,1.);
#1010=VECTOR('',#1784,1.);
#1011=VECTOR('',#1789,1.);
#1012=VECTOR('',#1790,1.);
#1013=VECTOR('',#1793,1.);
#1014=VECTOR('',#1796,1.);
#1015=VECTOR('',#1799,1.);
#1016=VECTOR('',#1802,1.);
#1017=VECTOR('',#1807,1.);
#1018=VECTOR('',#1808,1.);
#1019=VECTOR('',#1811,1.);
#1020=VECTOR('',#1814,1.);
#1021=VECTOR('',#1817,1.);
#1022=VECTOR('',#1820,1.);
#1023=VECTOR('',#1823,1.);
#1024=VECTOR('',#1826,1.);
#1025=VECTOR('',#1831,1.);
#1026=VECTOR('',#1832,1.);
#1027=VECTOR('',#1835,1.);
#1028=VECTOR('',#1838,1.);
#1029=VECTOR('',#1841,1.);
#1030=VECTOR('',#1844,1.);
#1031=EDGE_LOOP('',(#99,#100,#101,#102,#103,#104,#105,#106));
#1032=EDGE_LOOP('',(#107,#108,#109,#110,#111,#112));
#1033=EDGE_LOOP('',(#113,#114,#115,#116,#117,#118));
#1034=EDGE_LOOP('',(#119,#120,#121,#122,#123,#124));
#1035=EDGE_LOOP('',(#125,#126,#127,#128,#129,#130,#131,#132));
#1036=EDGE_LOOP('',(#133,#134,#135,#136,#137,#138));
#1037=EDGE_LOOP('',(#139,#140,#141,#142,#143,#144,#145,#146));
#1038=EDGE_LOOP('',(#147,#148,#149,#150));
#1039=EDGE_LOOP('',(#151,#152,#153,#154,#155,#156));
#1040=EDGE_LOOP('',(#157,#158,#159,#160));
#1041=EDGE_LOOP('',(#161,#162,#163,#164,#165,#166,#167,#168));
#1042=EDGE_LOOP('',(#169,#170,#171,#172,#173,#174));
#1043=EDGE_LOOP('',(#175,#176,#177,#178,#179,#180,#181,#182,#183,#184,#185,
#186));
#1044=EDGE_LOOP('',(#187,#188,#189,#190));
#1045=EDGE_LOOP('',(#191));
#1046=EDGE_LOOP('',(#192));
#1047=EDGE_LOOP('',(#193,#194,#195,#196));
#1048=EDGE_LOOP('',(#197,#198,#199,#200));
#1049=EDGE_LOOP('',(#201,#202,#203,#204));
#1050=EDGE_LOOP('',(#205));
#1051=EDGE_LOOP('',(#206));
#1052=EDGE_LOOP('',(#207));
#1053=EDGE_LOOP('',(#208));
#1054=EDGE_LOOP('',(#209));
#1055=EDGE_LOOP('',(#210));
#1056=EDGE_LOOP('',(#211,#212,#213,#214,#215,#216,#217,#218));
#1057=EDGE_LOOP('',(#219));
#1058=EDGE_LOOP('',(#220));
#1059=EDGE_LOOP('',(#221));
#1060=EDGE_LOOP('',(#222));
#1061=EDGE_LOOP('',(#223,#224,#225,#226,#227,#228,#229,#230,#231,#232,#233,
#234));
#1062=EDGE_LOOP('',(#235));
#1063=EDGE_LOOP('',(#236));
#1064=EDGE_LOOP('',(#237,#238,#239,#240,#241,#242,#243,#244));
#1065=EDGE_LOOP('',(#245));
#1066=EDGE_LOOP('',(#246));
#1067=EDGE_LOOP('',(#247));
#1068=EDGE_LOOP('',(#248));
#1069=EDGE_LOOP('',(#249,#250,#251,#252));
#1070=EDGE_LOOP('',(#253));
#1071=EDGE_LOOP('',(#254));
#1072=EDGE_LOOP('',(#255,#256,#257,#258));
#1073=EDGE_LOOP('',(#259,#260,#261,#262));
#1074=EDGE_LOOP('',(#263,#264,#265,#266,#267,#268));
#1075=EDGE_LOOP('',(#269,#270,#271,#272,#273,#274));
#1076=EDGE_LOOP('',(#275,#276,#277,#278));
#1077=EDGE_LOOP('',(#279,#280,#281,#282));
#1078=EDGE_LOOP('',(#283,#284,#285,#286,#287,#288,#289,#290));
#1079=EDGE_LOOP('',(#291));
#1080=EDGE_LOOP('',(#292));
#1081=EDGE_LOOP('',(#293));
#1082=EDGE_LOOP('',(#294));
#1083=EDGE_LOOP('',(#295,#296,#297,#298,#299,#300,#301,#302));
#1084=EDGE_LOOP('',(#303,#304,#305,#306));
#1085=EDGE_LOOP('',(#307,#308,#309,#310));
#1086=EDGE_LOOP('',(#311,#312,#313,#314));
#1087=EDGE_LOOP('',(#315));
#1088=EDGE_LOOP('',(#316));
#1089=EDGE_LOOP('',(#317));
#1090=EDGE_LOOP('',(#318));
#1091=EDGE_LOOP('',(#319));
#1092=EDGE_LOOP('',(#320));
#1093=EDGE_LOOP('',(#321));
#1094=EDGE_LOOP('',(#322));
#1095=EDGE_LOOP('',(#323,#324,#325,#326));
#1096=EDGE_LOOP('',(#327,#328,#329,#330));
#1097=EDGE_LOOP('',(#331,#332,#333,#334));
#1098=EDGE_LOOP('',(#335,#336,#337,#338));
#1099=EDGE_LOOP('',(#339,#340,#341,#342));
#1100=EDGE_LOOP('',(#343,#344,#345,#346));
#1101=EDGE_LOOP('',(#347,#348,#349,#350));
#1102=EDGE_LOOP('',(#351,#352,#353,#354));
#1103=EDGE_LOOP('',(#355,#356,#357,#358));
#1104=EDGE_LOOP('',(#359,#360,#361,#362));
#1105=EDGE_LOOP('',(#363,#364,#365,#366));
#1106=EDGE_LOOP('',(#367,#368,#369,#370));
#1107=EDGE_LOOP('',(#371,#372,#373,#374));
#1108=EDGE_LOOP('',(#375,#376,#377,#378));
#1109=EDGE_LOOP('',(#379,#380,#381,#382));
#1110=EDGE_LOOP('',(#383,#384,#385,#386));
#1111=EDGE_LOOP('',(#387,#388,#389,#390));
#1112=EDGE_LOOP('',(#391,#392,#393,#394));
#1113=EDGE_LOOP('',(#395,#396,#397,#398));
#1114=EDGE_LOOP('',(#399,#400,#401,#402));
#1115=EDGE_LOOP('',(#403,#404,#405,#406));
#1116=EDGE_LOOP('',(#407,#408,#409,#410));
#1117=EDGE_LOOP('',(#411,#412,#413,#414));
#1118=EDGE_LOOP('',(#415,#416,#417,#418));
#1119=EDGE_LOOP('',(#419,#420,#421,#422));
#1120=EDGE_LOOP('',(#423,#424,#425,#426));
#1121=EDGE_LOOP('',(#427,#428,#429,#430));
#1122=EDGE_LOOP('',(#431,#432,#433,#434));
#1123=EDGE_LOOP('',(#435,#436,#437,#438));
#1124=EDGE_LOOP('',(#439,#440,#441,#442));
#1125=EDGE_LOOP('',(#443,#444,#445,#446));
#1126=EDGE_LOOP('',(#447,#448,#449,#450));
#1127=EDGE_LOOP('',(#451,#452,#453,#454));
#1128=EDGE_LOOP('',(#455,#456,#457,#458));
#1129=EDGE_LOOP('',(#459,#460,#461,#462));
#1130=EDGE_LOOP('',(#463,#464,#465,#466));
#1131=FACE_BOUND('',#1031,.T.);
#1132=FACE_BOUND('',#1032,.T.);
#1133=FACE_BOUND('',#1033,.T.);
#1134=FACE_BOUND('',#1034,.T.);
#1135=FACE_BOUND('',#1035,.T.);
#1136=FACE_BOUND('',#1036,.T.);
#1137=FACE_BOUND('',#1037,.T.);
#1138=FACE_BOUND('',#1038,.T.);
#1139=FACE_BOUND('',#1039,.T.);
#1140=FACE_BOUND('',#1040,.T.);
#1141=FACE_BOUND('',#1041,.T.);
#1142=FACE_BOUND('',#1042,.T.);
#1143=FACE_BOUND('',#1043,.T.);
#1144=FACE_BOUND('',#1044,.T.);
#1145=FACE_BOUND('',#1045,.T.);
#1146=FACE_BOUND('',#1046,.T.);
#1147=FACE_BOUND('',#1047,.T.);
#1148=FACE_BOUND('',#1048,.T.);
#1149=FACE_BOUND('',#1049,.T.);
#1150=FACE_BOUND('',#1050,.T.);
#1151=FACE_BOUND('',#1051,.T.);
#1152=FACE_BOUND('',#1052,.T.);
#1153=FACE_BOUND('',#1053,.T.);
#1154=FACE_BOUND('',#1054,.T.);
#1155=FACE_BOUND('',#1055,.T.);
#1156=FACE_BOUND('',#1056,.T.);
#1157=FACE_BOUND('',#1057,.T.);
#1158=FACE_BOUND('',#1058,.T.);
#1159=FACE_BOUND('',#1059,.T.);
#1160=FACE_BOUND('',#1060,.T.);
#1161=FACE_BOUND('',#1061,.T.);
#1162=FACE_BOUND('',#1062,.T.);
#1163=FACE_BOUND('',#1063,.T.);
#1164=FACE_BOUND('',#1064,.T.);
#1165=FACE_BOUND('',#1065,.T.);
#1166=FACE_BOUND('',#1066,.T.);
#1167=FACE_BOUND('',#1067,.T.);
#1168=FACE_BOUND('',#1068,.T.);
#1169=FACE_BOUND('',#1069,.T.);
#1170=FACE_BOUND('',#1070,.T.);
#1171=FACE_BOUND('',#1071,.T.);
#1172=FACE_BOUND('',#1072,.T.);
#1173=FACE_BOUND('',#1073,.T.);
#1174=FACE_BOUND('',#1074,.T.);
#1175=FACE_BOUND('',#1075,.T.);
#1176=FACE_BOUND('',#1076,.T.);
#1177=FACE_BOUND('',#1077,.T.);
#1178=FACE_BOUND('',#1078,.T.);
#1179=FACE_BOUND('',#1079,.T.);
#1180=FACE_BOUND('',#1080,.T.);
#1181=FACE_BOUND('',#1081,.T.);
#1182=FACE_BOUND('',#1082,.T.);
#1183=FACE_BOUND('',#1083,.T.);
#1184=FACE_BOUND('',#1084,.T.);
#1185=FACE_BOUND('',#1085,.T.);
#1186=FACE_BOUND('',#1086,.T.);
#1187=FACE_BOUND('',#1087,.T.);
#1188=FACE_BOUND('',#1088,.T.);
#1189=FACE_BOUND('',#1089,.T.);
#1190=FACE_BOUND('',#1090,.T.);
#1191=FACE_BOUND('',#1091,.T.);
#1192=FACE_BOUND('',#1092,.T.);
#1193=FACE_BOUND('',#1093,.T.);
#1194=FACE_BOUND('',#1094,.T.);
#1195=FACE_BOUND('',#1095,.T.);
#1196=FACE_BOUND('',#1096,.T.);
#1197=FACE_BOUND('',#1097,.T.);
#1198=FACE_BOUND('',#1098,.T.);
#1199=FACE_BOUND('',#1099,.T.);
#1200=FACE_BOUND('',#1100,.T.);
#1201=FACE_BOUND('',#1101,.T.);
#1202=FACE_BOUND('',#1102,.T.);
#1203=FACE_BOUND('',#1103,.T.);
#1204=FACE_BOUND('',#1104,.T.);
#1205=FACE_BOUND('',#1105,.T.);
#1206=FACE_BOUND('',#1106,.T.);
#1207=FACE_BOUND('',#1107,.T.);
#1208=FACE_BOUND('',#1108,.T.);
#1209=FACE_BOUND('',#1109,.T.);
#1210=FACE_BOUND('',#1110,.T.);
#1211=FACE_BOUND('',#1111,.T.);
#1212=FACE_BOUND('',#1112,.T.);
#1213=FACE_BOUND('',#1113,.T.);
#1214=FACE_BOUND('',#1114,.T.);
#1215=FACE_BOUND('',#1115,.T.);
#1216=FACE_BOUND('',#1116,.T.);
#1217=FACE_BOUND('',#1117,.T.);
#1218=FACE_BOUND('',#1118,.T.);
#1219=FACE_BOUND('',#1119,.T.);
#1220=FACE_BOUND('',#1120,.T.);
#1221=FACE_BOUND('',#1121,.T.);
#1222=FACE_BOUND('',#1122,.T.);
#1223=FACE_BOUND('',#1123,.T.);
#1224=FACE_BOUND('',#1124,.T.);
#1225=FACE_BOUND('',#1125,.T.);
#1226=FACE_BOUND('',#1126,.T.);
#1227=FACE_BOUND('',#1127,.T.);
#1228=FACE_BOUND('',#1128,.T.);
#1229=FACE_BOUND('',#1129,.T.);
#1230=FACE_BOUND('',#1130,.T.);
#1231=PLANE('',#1347);
#1232=PLANE('',#1355);
#1233=PLANE('',#1363);
#1234=PLANE('',#1371);
#1235=PLANE('',#1379);
#1236=PLANE('',#1380);
#1237=PLANE('',#1381);
#1238=PLANE('',#1398);
#1239=PLANE('',#1409);
#1240=PLANE('',#1411);
#1241=PLANE('',#1414);
#1242=PLANE('',#1415);
#1243=PLANE('',#1416);
#1244=PLANE('',#1417);
#1245=PLANE('',#1418);
#1246=PLANE('',#1419);
#1247=PLANE('',#1428);
#1248=PLANE('',#1429);
#1249=PLANE('',#1430);
#1250=PLANE('',#1436);
#1251=PLANE('',#1438);
#1252=PLANE('',#1440);
#1253=PLANE('',#1442);
#1254=PLANE('',#1444);
#1255=PLANE('',#1446);
#1256=PLANE('',#1448);
#1257=PLANE('',#1450);
#1258=PLANE('',#1452);
#1259=PLANE('',#1454);
#1260=PLANE('',#1456);
#1261=PLANE('',#1457);
#1262=PLANE('',#1459);
#1263=PLANE('',#1461);
#1264=PLANE('',#1463);
#1265=PLANE('',#1465);
#1266=PLANE('',#1467);
#1267=PLANE('',#1469);
#1268=ADVANCED_FACE('',(#1131,#1132,#1133),#1231,.F.);
#1269=ADVANCED_FACE('',(#1134,#1135,#1136),#1232,.T.);
#1270=ADVANCED_FACE('',(#1137,#1138,#1139),#1233,.F.);
#1271=ADVANCED_FACE('',(#1140,#1141,#1142),#1234,.T.);
#1272=ADVANCED_FACE('',(#1143),#1235,.F.);
#1273=ADVANCED_FACE('',(#1144),#1236,.F.);
#1274=ADVANCED_FACE('',(#1145,#1146,#1147),#1237,.F.);
#1275=ADVANCED_FACE('',(#1148),#12,.T.);
#1276=ADVANCED_FACE('',(#1149),#13,.T.);
#1277=ADVANCED_FACE('',(#1150,#1151),#14,.F.);
#1278=ADVANCED_FACE('',(#1152,#1153),#15,.F.);
#1279=ADVANCED_FACE('',(#1154,#1155),#16,.F.);
#1280=ADVANCED_FACE('',(#1156,#1157,#1158,#1159,#1160,#1161),#1238,.T.);
#1281=ADVANCED_FACE('',(#1162,#1163),#17,.F.);
#1282=ADVANCED_FACE('',(#1164,#1165,#1166,#1167,#1168),#1239,.T.);
#1283=ADVANCED_FACE('',(#1169,#1170,#1171),#1240,.F.);
#1284=ADVANCED_FACE('',(#1172),#18,.F.);
#1285=ADVANCED_FACE('',(#1173),#1241,.T.);
#1286=ADVANCED_FACE('',(#1174),#1242,.F.);
#1287=ADVANCED_FACE('',(#1175),#1243,.F.);
#1288=ADVANCED_FACE('',(#1176),#1244,.F.);
#1289=ADVANCED_FACE('',(#1177),#1245,.F.);
#1290=ADVANCED_FACE('',(#1178,#1179,#1180,#1181,#1182,#1183),#1246,.T.);
#1291=ADVANCED_FACE('',(#1184),#1247,.T.);
#1292=ADVANCED_FACE('',(#1185),#1248,.T.);
#1293=ADVANCED_FACE('',(#1186),#1249,.T.);
#1294=ADVANCED_FACE('',(#1187,#1188),#19,.F.);
#1295=ADVANCED_FACE('',(#1189,#1190),#20,.F.);
#1296=ADVANCED_FACE('',(#1191,#1192),#21,.F.);
#1297=ADVANCED_FACE('',(#1193,#1194),#22,.F.);
#1298=ADVANCED_FACE('',(#1195),#23,.F.);
#1299=ADVANCED_FACE('',(#1196),#1250,.F.);
#1300=ADVANCED_FACE('',(#1197),#24,.F.);
#1301=ADVANCED_FACE('',(#1198),#1251,.F.);
#1302=ADVANCED_FACE('',(#1199),#25,.F.);
#1303=ADVANCED_FACE('',(#1200),#1252,.F.);
#1304=ADVANCED_FACE('',(#1201),#26,.F.);
#1305=ADVANCED_FACE('',(#1202),#1253,.F.);
#1306=ADVANCED_FACE('',(#1203),#27,.F.);
#1307=ADVANCED_FACE('',(#1204),#1254,.F.);
#1308=ADVANCED_FACE('',(#1205),#28,.F.);
#1309=ADVANCED_FACE('',(#1206),#1255,.F.);
#1310=ADVANCED_FACE('',(#1207),#29,.F.);
#1311=ADVANCED_FACE('',(#1208),#1256,.T.);
#1312=ADVANCED_FACE('',(#1209),#30,.F.);
#1313=ADVANCED_FACE('',(#1210),#1257,.T.);
#1314=ADVANCED_FACE('',(#1211),#31,.F.);
#1315=ADVANCED_FACE('',(#1212),#1258,.F.);
#1316=ADVANCED_FACE('',(#1213),#32,.F.);
#1317=ADVANCED_FACE('',(#1214),#1259,.T.);
#1318=ADVANCED_FACE('',(#1215),#33,.F.);
#1319=ADVANCED_FACE('',(#1216),#1260,.T.);
#1320=ADVANCED_FACE('',(#1217),#1261,.T.);
#1321=ADVANCED_FACE('',(#1218),#34,.F.);
#1322=ADVANCED_FACE('',(#1219),#1262,.T.);
#1323=ADVANCED_FACE('',(#1220),#35,.F.);
#1324=ADVANCED_FACE('',(#1221),#1263,.F.);
#1325=ADVANCED_FACE('',(#1222),#36,.F.);
#1326=ADVANCED_FACE('',(#1223),#1264,.F.);
#1327=ADVANCED_FACE('',(#1224),#37,.F.);
#1328=ADVANCED_FACE('',(#1225),#1265,.T.);
#1329=ADVANCED_FACE('',(#1226),#38,.F.);
#1330=ADVANCED_FACE('',(#1227),#1266,.T.);
#1331=ADVANCED_FACE('',(#1228),#39,.F.);
#1332=ADVANCED_FACE('',(#1229),#1267,.F.);
#1333=ADVANCED_FACE('',(#1230),#40,.F.);
#1334=CLOSED_SHELL('',(#1268,#1269,#1270,#1271,#1272,#1273,#1274,#1275,
#1276,#1277,#1278,#1279,#1280,#1281,#1282,#1283,#1284,#1285,#1286,#1287,
#1288,#1289,#1290,#1291,#1292,#1293,#1294,#1295,#1296,#1297,#1298,#1299,
#1300,#1301,#1302,#1303,#1304,#1305,#1306,#1307,#1308,#1309,#1310,#1311,
#1312,#1313,#1314,#1315,#1316,#1317,#1318,#1319,#1320,#1321,#1322,#1323,
#1324,#1325,#1326,#1327,#1328,#1329,#1330,#1331,#1332,#1333));
#1335=STYLED_ITEM('',(#1336),#1343);
#1336=PRESENTATION_STYLE_ASSIGNMENT((#1337));
#1337=SURFACE_STYLE_USAGE(.BOTH.,#1338);
#1338=SURFACE_SIDE_STYLE('',(#1339));
#1339=SURFACE_STYLE_FILL_AREA(#1340);
#1340=FILL_AREA_STYLE('',(#1341));
#1341=FILL_AREA_STYLE_COLOUR('',#1342);
#1342=DRAUGHTING_PRE_DEFINED_COLOUR('white');
#1343=MANIFOLD_SOLID_BREP('Part 1',#1334);
#1344=SHAPE_DEFINITION_REPRESENTATION(#2232,#1345);
#1345=SHAPE_REPRESENTATION('Part 1',(#1346),#2227);
#1346=AXIS2_PLACEMENT_3D('',#1847,#1471,#1472);
#1347=AXIS2_PLACEMENT_3D('',#1848,#1473,#1474);
#1348=AXIS2_PLACEMENT_3D('',#1852,#1476,#1477);
#1349=AXIS2_PLACEMENT_3D('',#1856,#1479,#1480);
#1350=AXIS2_PLACEMENT_3D('',#1860,#1482,#1483);
#1351=AXIS2_PLACEMENT_3D('',#1864,#1485,#1486);
#1352=AXIS2_PLACEMENT_3D('',#1880,#1494,#1495);
#1353=AXIS2_PLACEMENT_3D('',#1884,#1497,#1498);
#1354=AXIS2_PLACEMENT_3D('',#1888,#1500,#1501);
#1355=AXIS2_PLACEMENT_3D('',#1889,#1502,#1503);
#1356=AXIS2_PLACEMENT_3D('',#1902,#1510,#1511);
#1357=AXIS2_PLACEMENT_3D('',#1907,#1513,#1514);
#1358=AXIS2_PLACEMENT_3D('',#1911,#1516,#1517);
#1359=AXIS2_PLACEMENT_3D('',#1915,#1519,#1520);
#1360=AXIS2_PLACEMENT_3D('',#1918,#1522,#1523);
#1361=AXIS2_PLACEMENT_3D('',#1923,#1525,#1526);
#1362=AXIS2_PLACEMENT_3D('',#1927,#1528,#1529);
#1363=AXIS2_PLACEMENT_3D('',#1930,#1531,#1532);
#1364=AXIS2_PLACEMENT_3D('',#1934,#1534,#1535);
#1365=AXIS2_PLACEMENT_3D('',#1938,#1537,#1538);
#1366=AXIS2_PLACEMENT_3D('',#1942,#1540,#1541);
#1367=AXIS2_PLACEMENT_3D('',#1946,#1543,#1544);
#1368=AXIS2_PLACEMENT_3D('',#1958,#1550,#1551);
#1369=AXIS2_PLACEMENT_3D('',#1962,#1553,#1554);
#1370=AXIS2_PLACEMENT_3D('',#1966,#1556,#1557);
#1371=AXIS2_PLACEMENT_3D('',#1967,#1558,#1559);
#1372=AXIS2_PLACEMENT_3D('',#1976,#1564,#1565);
#1373=AXIS2_PLACEMENT_3D('',#1981,#1567,#1568);
#1374=AXIS2_PLACEMENT_3D('',#1985,#1570,#1571);
#1375=AXIS2_PLACEMENT_3D('',#1989,#1573,#1574);
#1376=AXIS2_PLACEMENT_3D('',#1992,#1576,#1577);
#1377=AXIS2_PLACEMENT_3D('',#1997,#1579,#1580);
#1378=AXIS2_PLACEMENT_3D('',#2001,#1582,#1583);
#1379=AXIS2_PLACEMENT_3D('',#2004,#1585,#1586);
#1380=AXIS2_PLACEMENT_3D('',#2017,#1595,#1596);
#1381=AXIS2_PLACEMENT_3D('',#2019,#1598,#1599);
#1382=AXIS2_PLACEMENT_3D('',#2020,#1600,#1601);
#1383=AXIS2_PLACEMENT_3D('',#2022,#1602,#1603);
#1384=AXIS2_PLACEMENT_3D('',#2024,#1604,#1605);
#1385=AXIS2_PLACEMENT_3D('',#2027,#1607,#1608);
#1386=AXIS2_PLACEMENT_3D('',#2028,#1609,#1610);
#1387=AXIS2_PLACEMENT_3D('',#2031,#1612,#1613);
#1388=AXIS2_PLACEMENT_3D('',#2032,#1614,#1615);
#1389=AXIS2_PLACEMENT_3D('',#2036,#1617,#1618);
#1390=AXIS2_PLACEMENT_3D('',#2037,#1619,#1620);
#1391=AXIS2_PLACEMENT_3D('',#2038,#1621,#1622);
#1392=AXIS2_PLACEMENT_3D('',#2040,#1623,#1624);
#1393=AXIS2_PLACEMENT_3D('',#2041,#1625,#1626);
#1394=AXIS2_PLACEMENT_3D('',#2043,#1627,#1628);
#1395=AXIS2_PLACEMENT_3D('',#2045,#1629,#1630);
#1396=AXIS2_PLACEMENT_3D('',#2046,#1631,#1632);
#1397=AXIS2_PLACEMENT_3D('',#2048,#1633,#1634);
#1398=AXIS2_PLACEMENT_3D('',#2050,#1635,#1636);
#1399=AXIS2_PLACEMENT_3D('',#2051,#1637,#1638);
#1400=AXIS2_PLACEMENT_3D('',#2056,#1640,#1641);
#1401=AXIS2_PLACEMENT_3D('',#2060,#1643,#1644);
#1402=AXIS2_PLACEMENT_3D('',#2064,#1646,#1647);
#1403=AXIS2_PLACEMENT_3D('',#2067,#1649,#1650);
#1404=AXIS2_PLACEMENT_3D('',#2069,#1651,#1652);
#1405=AXIS2_PLACEMENT_3D('',#2071,#1653,#1654);
#1406=AXIS2_PLACEMENT_3D('',#2073,#1655,#1656);
#1407=AXIS2_PLACEMENT_3D('',#2086,#1664,#1665);
#1408=AXIS2_PLACEMENT_3D('',#2087,#1666,#1667);
#1409=AXIS2_PLACEMENT_3D('',#2089,#1668,#1669);
#1410=AXIS2_PLACEMENT_3D('',#2092,#1671,#1672);
#1411=AXIS2_PLACEMENT_3D('',#2095,#1674,#1675);
#1412=AXIS2_PLACEMENT_3D('',#2096,#1676,#1677);
#1413=AXIS2_PLACEMENT_3D('',#2099,#1679,#1680);
#1414=AXIS2_PLACEMENT_3D('',#2102,#1682,#1683);
#1415=AXIS2_PLACEMENT_3D('',#2108,#1687,#1688);
#1416=AXIS2_PLACEMENT_3D('',#2112,#1691,#1692);
#1417=AXIS2_PLACEMENT_3D('',#2116,#1695,#1696);
#1418=AXIS2_PLACEMENT_3D('',#2118,#1698,#1699);
#1419=AXIS2_PLACEMENT_3D('',#2119,#1700,#1701);
#1420=AXIS2_PLACEMENT_3D('',#2120,#1702,#1703);
#1421=AXIS2_PLACEMENT_3D('',#2125,#1705,#1706);
#1422=AXIS2_PLACEMENT_3D('',#2129,#1708,#1709);
#1423=AXIS2_PLACEMENT_3D('',#2133,#1711,#1712);
#1424=AXIS2_PLACEMENT_3D('',#2136,#1714,#1715);
#1425=AXIS2_PLACEMENT_3D('',#2138,#1716,#1717);
#1426=AXIS2_PLACEMENT_3D('',#2140,#1718,#1719);
#1427=AXIS2_PLACEMENT_3D('',#2142,#1720,#1721);
#1428=AXIS2_PLACEMENT_3D('',#2147,#1725,#1726);
#1429=AXIS2_PLACEMENT_3D('',#2148,#1727,#1728);
#1430=AXIS2_PLACEMENT_3D('',#2149,#1729,#1730);
#1431=AXIS2_PLACEMENT_3D('',#2150,#1731,#1732);
#1432=AXIS2_PLACEMENT_3D('',#2151,#1733,#1734);
#1433=AXIS2_PLACEMENT_3D('',#2152,#1735,#1736);
#1434=AXIS2_PLACEMENT_3D('',#2153,#1737,#1738);
#1435=AXIS2_PLACEMENT_3D('',#2154,#1739,#1740);
#1436=AXIS2_PLACEMENT_3D('',#2157,#1743,#1744);
#1437=AXIS2_PLACEMENT_3D('',#2159,#1746,#1747);
#1438=AXIS2_PLACEMENT_3D('',#2161,#1749,#1750);
#1439=AXIS2_PLACEMENT_3D('',#2163,#1752,#1753);
#1440=AXIS2_PLACEMENT_3D('',#2165,#1755,#1756);
#1441=AXIS2_PLACEMENT_3D('',#2167,#1758,#1759);
#1442=AXIS2_PLACEMENT_3D('',#2169,#1761,#1762);
#1443=AXIS2_PLACEMENT_3D('',#2170,#1763,#1764);
#1444=AXIS2_PLACEMENT_3D('',#2173,#1767,#1768);
#1445=AXIS2_PLACEMENT_3D('',#2175,#1770,#1771);
#1446=AXIS2_PLACEMENT_3D('',#2177,#1773,#1774);
#1447=AXIS2_PLACEMENT_3D('',#2179,#1776,#1777);
#1448=AXIS2_PLACEMENT_3D('',#2181,#1779,#1780);
#1449=AXIS2_PLACEMENT_3D('',#2183,#1782,#1783);
#1450=AXIS2_PLACEMENT_3D('',#2185,#1785,#1786);
#1451=AXIS2_PLACEMENT_3D('',#2186,#1787,#1788);
#1452=AXIS2_PLACEMENT_3D('',#2189,#1791,#1792);
#1453=AXIS2_PLACEMENT_3D('',#2191,#1794,#1795);
#1454=AXIS2_PLACEMENT_3D('',#2193,#1797,#1798);
#1455=AXIS2_PLACEMENT_3D('',#2195,#1800,#1801);
#1456=AXIS2_PLACEMENT_3D('',#2197,#1803,#1804);
#1457=AXIS2_PLACEMENT_3D('',#2198,#1805,#1806);
#1458=AXIS2_PLACEMENT_3D('',#2201,#1809,#1810);
#1459=AXIS2_PLACEMENT_3D('',#2203,#1812,#1813);
#1460=AXIS2_PLACEMENT_3D('',#2205,#1815,#1816);
#1461=AXIS2_PLACEMENT_3D('',#2207,#1818,#1819);
#1462=AXIS2_PLACEMENT_3D('',#2209,#1821,#1822);
#1463=AXIS2_PLACEMENT_3D('',#2211,#1824,#1825);
#1464=AXIS2_PLACEMENT_3D('',#2213,#1827,#1828);
#1465=AXIS2_PLACEMENT_3D('',#2214,#1829,#1830);
#1466=AXIS2_PLACEMENT_3D('',#2217,#1833,#1834);
#1467=AXIS2_PLACEMENT_3D('',#2219,#1836,#1837);
#1468=AXIS2_PLACEMENT_3D('',#2221,#1839,#1840);
#1469=AXIS2_PLACEMENT_3D('',#2223,#1842,#1843);
#1470=AXIS2_PLACEMENT_3D('',#2225,#1845,#1846);
#1471=DIRECTION('',(0.,0.,1.));
#1472=DIRECTION('',(1.,0.,0.));
#1473=DIRECTION('',(0.,-1.,0.));
#1474=DIRECTION('',(1.,0.,0.));
#1475=DIRECTION('',(0.,0.,1.));
#1476=DIRECTION('',(0.,-1.,0.));
#1477=DIRECTION('',(1.,0.,0.));
#1478=DIRECTION('',(1.,0.,0.));
#1479=DIRECTION('',(0.,-1.,0.));
#1480=DIRECTION('',(1.,0.,0.));
#1481=DIRECTION('',(-2.89120579329469E-16,0.,1.));
#1482=DIRECTION('',(0.,-1.,0.));
#1483=DIRECTION('',(1.,0.,0.));
#1484=DIRECTION('',(1.,0.,0.));
#1485=DIRECTION('',(0.,-1.,0.));
#1486=DIRECTION('',(1.,0.,0.));
#1487=DIRECTION('',(0.452028737244174,0.,-0.892003374828503));
#1488=DIRECTION('',(0.,0.,1.));
#1489=DIRECTION('',(1.,0.,0.));
#1490=DIRECTION('',(0.,0.,1.));
#1491=DIRECTION('',(1.,0.,0.));
#1492=DIRECTION('',(0.,0.,1.));
#1493=DIRECTION('',(1.,0.,0.));
#1494=DIRECTION('',(0.,-1.,0.));
#1495=DIRECTION('',(1.,0.,0.));
#1496=DIRECTION('',(0.452028737244174,0.,-0.892003374828503));
#1497=DIRECTION('',(0.,-1.,0.));
#1498=DIRECTION('',(1.,0.,0.));
#1499=DIRECTION('',(1.76015730199484E-16,0.,-1.));
#1500=DIRECTION('',(0.,-1.,0.));
#1501=DIRECTION('',(1.,0.,0.));
#1502=DIRECTION('',(0.,-1.,0.));
#1503=DIRECTION('',(1.,0.,0.));
#1504=DIRECTION('',(0.,0.,1.));
#1505=DIRECTION('',(0.452028737244174,0.,-0.892003374828503));
#1506=DIRECTION('',(0.,0.,1.));
#1507=DIRECTION('',(1.,0.,0.));
#1508=DIRECTION('',(0.,0.,1.));
#1509=DIRECTION('',(1.,0.,0.));
#1510=DIRECTION('',(0.,-1.,0.));
#1511=DIRECTION('',(1.,0.,0.));
#1512=DIRECTION('',(0.,0.,1.));
#1513=DIRECTION('',(0.,-1.,0.));
#1514=DIRECTION('',(1.,0.,0.));
#1515=DIRECTION('',(1.,0.,0.));
#1516=DIRECTION('',(0.,-1.,0.));
#1517=DIRECTION('',(1.,0.,0.));
#1518=DIRECTION('',(-2.89120579329469E-16,0.,1.));
#1519=DIRECTION('',(0.,-1.,0.));
#1520=DIRECTION('',(1.,0.,0.));
#1521=DIRECTION('',(1.,0.,0.));
#1522=DIRECTION('',(0.,-1.,0.));
#1523=DIRECTION('',(1.,0.,0.));
#1524=DIRECTION('',(1.,0.,0.));
#1525=DIRECTION('',(0.,-1.,0.));
#1526=DIRECTION('',(1.,0.,0.));
#1527=DIRECTION('',(1.76015730199484E-16,0.,-1.));
#1528=DIRECTION('',(0.,-1.,0.));
#1529=DIRECTION('',(1.,0.,0.));
#1530=DIRECTION('',(0.452028737244174,0.,-0.892003374828503));
#1531=DIRECTION('',(0.,-1.,0.));
#1532=DIRECTION('',(1.,0.,0.));
#1533=DIRECTION('',(0.,0.,1.));
#1534=DIRECTION('',(0.,-1.,0.));
#1535=DIRECTION('',(1.,0.,0.));
#1536=DIRECTION('',(1.,0.,0.));
#1537=DIRECTION('',(0.,-1.,0.));
#1538=DIRECTION('',(1.,0.,0.));
#1539=DIRECTION('',(-2.89120579329469E-16,0.,1.));
#1540=DIRECTION('',(0.,-1.,0.));
#1541=DIRECTION('',(1.,0.,0.));
#1542=DIRECTION('',(1.,0.,0.));
#1543=DIRECTION('',(0.,-1.,0.));
#1544=DIRECTION('',(1.,0.,0.));
#1545=DIRECTION('',(0.452028737244174,0.,-0.892003374828503));
#1546=DIRECTION('',(0.,0.,1.));
#1547=DIRECTION('',(1.,0.,0.));
#1548=DIRECTION('',(0.,0.,1.));
#1549=DIRECTION('',(1.,0.,0.));
#1550=DIRECTION('',(0.,-1.,0.));
#1551=DIRECTION('',(1.,0.,0.));
#1552=DIRECTION('',(0.452028737244174,0.,-0.892003374828503));
#1553=DIRECTION('',(0.,-1.,0.));
#1554=DIRECTION('',(1.,0.,0.));
#1555=DIRECTION('',(1.76015730199484E-16,0.,-1.));
#1556=DIRECTION('',(0.,-1.,0.));
#1557=DIRECTION('',(1.,0.,0.));
#1558=DIRECTION('',(0.,-1.,0.));
#1559=DIRECTION('',(1.,0.,0.));
#1560=DIRECTION('',(0.,0.,1.));
#1561=DIRECTION('',(0.452028737244174,0.,-0.892003374828503));
#1562=DIRECTION('',(0.,0.,1.));
#1563=DIRECTION('',(1.,0.,0.));
#1564=DIRECTION('',(0.,-1.,0.));
#1565=DIRECTION('',(1.,0.,0.));
#1566=DIRECTION('',(0.,0.,1.));
#1567=DIRECTION('',(0.,-1.,0.));
#1568=DIRECTION('',(1.,0.,0.));
#1569=DIRECTION('',(1.,0.,0.));
#1570=DIRECTION('',(0.,-1.,0.));
#1571=DIRECTION('',(1.,0.,0.));
#1572=DIRECTION('',(-2.89120579329469E-16,0.,1.));
#1573=DIRECTION('',(0.,-1.,0.));
#1574=DIRECTION('',(1.,0.,0.));
#1575=DIRECTION('',(1.,0.,0.));
#1576=DIRECTION('',(0.,-1.,0.));
#1577=DIRECTION('',(1.,0.,0.));
#1578=DIRECTION('',(1.,0.,0.));
#1579=DIRECTION('',(0.,-1.,0.));
#1580=DIRECTION('',(1.,0.,0.));
#1581=DIRECTION('',(1.76015730199484E-16,0.,-1.));
#1582=DIRECTION('',(0.,-1.,0.));
#1583=DIRECTION('',(1.,0.,0.));
#1584=DIRECTION('',(0.452028737244174,0.,-0.892003374828503));
#1585=DIRECTION('',(1.,1.4307758083211E-16,0.));
#1586=DIRECTION('',(-1.4307758083211E-16,1.,0.));
#1587=DIRECTION('',(0.,-1.,0.));
#1588=DIRECTION('',(1.4307758083211E-16,-1.,0.));
#1589=DIRECTION('',(0.,0.,-1.));
#1590=DIRECTION('',(1.4307758083211E-16,-1.,0.));
#1591=DIRECTION('',(0.,0.,-1.));
#1592=DIRECTION('',(1.4307758083211E-16,-1.,0.));
#1593=DIRECTION('',(0.,-1.,0.));
#1594=DIRECTION('',(1.4307758083211E-16,-1.,0.));
#1595=DIRECTION('',(0.,0.,1.));
#1596=DIRECTION('',(0.,-1.,0.));
#1597=DIRECTION('',(0.,-1.,0.));
#1598=DIRECTION('',(0.,0.,1.));
#1599=DIRECTION('',(0.,-1.,0.));
#1600=DIRECTION('',(0.,0.,1.));
#1601=DIRECTION('',(0.,-1.,0.));
#1602=DIRECTION('',(0.,0.,1.));
#1603=DIRECTION('',(0.,-1.,0.));
#1604=DIRECTION('',(0.,0.,1.));
#1605=DIRECTION('',(0.,-1.,0.));
#1606=DIRECTION('',(9.5385053888073E-17,-1.,0.));
#1607=DIRECTION('',(0.,0.,-1.));
#1608=DIRECTION('',(0.,1.,0.));
#1609=DIRECTION('',(0.,0.,1.));
#1610=DIRECTION('',(0.,-1.,0.));
#1611=DIRECTION('',(0.,0.,-1.));
#1612=DIRECTION('',(0.,0.,-1.));
#1613=DIRECTION('',(0.,1.,0.));
#1614=DIRECTION('',(0.,0.,1.));
#1615=DIRECTION('',(0.,-1.,0.));
#1616=DIRECTION('',(0.,0.,-1.));
#1617=DIRECTION('',(0.,0.,1.));
#1618=DIRECTION('',(0.,-1.,0.));
#1619=DIRECTION('',(0.,0.,-1.));
#1620=DIRECTION('',(0.,1.,0.));
#1621=DIRECTION('',(0.,0.,1.));
#1622=DIRECTION('',(0.,-1.,0.));
#1623=DIRECTION('',(0.,0.,-1.));
#1624=DIRECTION('',(0.,1.,0.));
#1625=DIRECTION('',(0.,0.,1.));
#1626=DIRECTION('',(0.,-1.,0.));
#1627=DIRECTION('',(0.,0.,1.));
#1628=DIRECTION('',(0.,-1.,0.));
#1629=DIRECTION('',(0.,0.,-1.));
#1630=DIRECTION('',(0.,1.,0.));
#1631=DIRECTION('',(0.,0.,1.));
#1632=DIRECTION('',(0.,-1.,0.));
#1633=DIRECTION('',(0.,0.,1.));
#1634=DIRECTION('',(0.,-1.,0.));
#1635=DIRECTION('',(1.,9.5385053888073E-17,0.));
#1636=DIRECTION('',(-9.5385053888073E-17,1.,0.));
#1637=DIRECTION('',(1.,9.5385053888073E-17,0.));
#1638=DIRECTION('',(-9.5385053888073E-17,1.,0.));
#1639=DIRECTION('',(9.5385053888073E-17,-1.,0.));
#1640=DIRECTION('',(1.,9.5385053888073E-17,0.));
#1641=DIRECTION('',(-9.5385053888073E-17,1.,0.));
#1642=DIRECTION('',(0.,0.,1.));
#1643=DIRECTION('',(1.,9.5385053888073E-17,0.));
#1644=DIRECTION('',(-9.5385053888073E-17,1.,0.));
#1645=DIRECTION('',(-9.5385053888073E-17,1.,0.));
#1646=DIRECTION('',(1.,9.5385053888073E-17,0.));
#1647=DIRECTION('',(-9.5385053888073E-17,1.,0.));
#1648=DIRECTION('',(2.75777820394924E-32,-2.8912057932947E-16,-1.));
#1649=DIRECTION('',(1.,9.5385053888073E-17,0.));
#1650=DIRECTION('',(-9.5385053888073E-17,1.,0.));
#1651=DIRECTION('',(1.,9.5385053888073E-17,0.));
#1652=DIRECTION('',(-9.5385053888073E-17,1.,0.));
#1653=DIRECTION('',(1.,9.5385053888073E-17,0.));
#1654=DIRECTION('',(-9.5385053888073E-17,1.,0.));
#1655=DIRECTION('',(1.,9.5385053888073E-17,0.));
#1656=DIRECTION('',(-9.5385053888073E-17,1.,0.));
#1657=DIRECTION('',(0.,0.,1.));
#1658=DIRECTION('',(9.5385053888073E-17,-1.,0.));
#1659=DIRECTION('',(9.5385053888073E-17,-1.,0.));
#1660=DIRECTION('',(9.5385053888073E-17,-1.,0.));
#1661=DIRECTION('',(9.5385053888073E-17,-1.,0.));
#1662=DIRECTION('',(0.,0.,1.));
#1663=DIRECTION('',(0.,1.,0.));
#1664=DIRECTION('',(0.,0.,-1.));
#1665=DIRECTION('',(0.,1.,0.));
#1666=DIRECTION('',(0.,0.,1.));
#1667=DIRECTION('',(0.,-1.,0.));
#1668=DIRECTION('',(0.,0.,1.));
#1669=DIRECTION('',(0.,-1.,0.));
#1670=DIRECTION('',(1.,1.38777878078145E-16,0.));
#1671=DIRECTION('',(0.,0.,1.));
#1672=DIRECTION('',(0.,-1.,0.));
#1673=DIRECTION('',(-1.,-1.21430643318377E-16,0.));
#1674=DIRECTION('',(0.,0.,1.));
#1675=DIRECTION('',(0.,-1.,0.));
#1676=DIRECTION('',(0.,0.,1.));
#1677=DIRECTION('',(0.,-1.,0.));
#1678=DIRECTION('',(0.,0.,1.));
#1679=DIRECTION('',(0.,0.,1.));
#1680=DIRECTION('',(0.,-1.,0.));
#1681=DIRECTION('',(0.,0.,1.));
#1682=DIRECTION('',(0.,0.,1.));
#1683=DIRECTION('',(0.,-1.,0.));
#1684=DIRECTION('',(1.,1.38777878078145E-16,0.));
#1685=DIRECTION('',(-1.44560289664734E-16,-1.,0.));
#1686=DIRECTION('',(-1.,-1.21430643318377E-16,0.));
#1687=DIRECTION('',(1.38777878078145E-16,-1.,0.));
#1688=DIRECTION('',(1.,1.38777878078145E-16,0.));
#1689=DIRECTION('',(1.,1.38777878078145E-16,0.));
#1690=DIRECTION('',(0.,0.,1.));
#1691=DIRECTION('',(-1.21430643318377E-16,1.,0.));
#1692=DIRECTION('',(-1.,-1.21430643318377E-16,0.));
#1693=DIRECTION('',(0.,0.,1.));
#1694=DIRECTION('',(-1.,-1.21430643318377E-16,0.));
#1695=DIRECTION('',(-1.,1.44560289664734E-16,0.));
#1696=DIRECTION('',(-1.44560289664734E-16,-1.,0.));
#1697=DIRECTION('',(-1.44560289664734E-16,-1.,0.));
#1698=DIRECTION('',(0.,0.,-1.));
#1699=DIRECTION('',(0.,1.,0.));
#1700=DIRECTION('',(-1.,0.,0.));
#1701=DIRECTION('',(0.,-1.,0.));
#1702=DIRECTION('',(-1.,0.,0.));
#1703=DIRECTION('',(0.,-1.,0.));
#1704=DIRECTION('',(0.,-2.8912057932947E-16,-1.));
#1705=DIRECTION('',(-1.,0.,0.));
#1706=DIRECTION('',(0.,-1.,0.));
#1707=DIRECTION('',(0.,1.,0.));
#1708=DIRECTION('',(-1.,0.,0.));
#1709=DIRECTION('',(0.,-1.,0.));
#1710=DIRECTION('',(0.,0.,1.));
#1711=DIRECTION('',(-1.,0.,0.));
#1712=DIRECTION('',(0.,-1.,0.));
#1713=DIRECTION('',(0.,-1.,0.));
#1714=DIRECTION('',(-1.,0.,0.));
#1715=DIRECTION('',(0.,-1.,0.));
#1716=DIRECTION('',(-1.,0.,0.));
#1717=DIRECTION('',(0.,-1.,0.));
#1718=DIRECTION('',(-1.,0.,0.));
#1719=DIRECTION('',(0.,-1.,0.));
#1720=DIRECTION('',(-1.,0.,0.));
#1721=DIRECTION('',(0.,-1.,0.));
#1722=DIRECTION('',(0.,-1.,0.));
#1723=DIRECTION('',(0.,-1.,0.));
#1724=DIRECTION('',(0.,-1.,0.));
#1725=DIRECTION('',(0.,0.,-1.));
#1726=DIRECTION('',(0.,1.,0.));
#1727=DIRECTION('',(-0.892003374828503,0.,-0.452028737244174));
#1728=DIRECTION('',(0.452028737244174,0.,-0.892003374828503));
#1729=DIRECTION('',(-0.892003374828503,0.,-0.452028737244174));
#1730=DIRECTION('',(0.452028737244174,0.,-0.892003374828503));
#1731=DIRECTION('',(1.,9.5385053888073E-17,0.));
#1732=DIRECTION('',(-9.5385053888073E-17,1.,0.));
#1733=DIRECTION('',(1.,9.5385053888073E-17,0.));
#1734=DIRECTION('',(-9.5385053888073E-17,1.,0.));
#1735=DIRECTION('',(1.,9.5385053888073E-17,0.));
#1736=DIRECTION('',(-9.5385053888073E-17,1.,0.));
#1737=DIRECTION('',(1.,9.5385053888073E-17,0.));
#1738=DIRECTION('',(-9.5385053888073E-17,1.,0.));
#1739=DIRECTION('',(-1.,0.,0.));
#1740=DIRECTION('',(0.,-1.,0.));
#1741=DIRECTION('',(-1.,0.,0.));
#1742=DIRECTION('',(-1.,0.,0.));
#1743=DIRECTION('',(0.,1.,-2.8912057932947E-16));
#1744=DIRECTION('',(0.,2.8912057932947E-16,1.));
#1745=DIRECTION('',(-1.,0.,0.));
#1746=DIRECTION('',(-1.,0.,0.));
#1747=DIRECTION('',(0.,-1.,0.));
#1748=DIRECTION('',(-1.,0.,0.));
#1749=DIRECTION('',(0.,0.,1.));
#1750=DIRECTION('',(0.,-1.,0.));
#1751=DIRECTION('',(-1.,0.,0.));
#1752=DIRECTION('',(-1.,0.,0.));
#1753=DIRECTION('',(0.,-1.,0.));
#1754=DIRECTION('',(-1.,0.,0.));
#1755=DIRECTION('',(0.,-1.,0.));
#1756=DIRECTION('',(1.,0.,0.));
#1757=DIRECTION('',(-1.,0.,0.));
#1758=DIRECTION('',(-1.,0.,0.));
#1759=DIRECTION('',(0.,-1.,0.));
#1760=DIRECTION('',(-1.,0.,0.));
#1761=DIRECTION('',(0.,0.,-1.));
#1762=DIRECTION('',(0.,1.,0.));
#1763=DIRECTION('',(0.,-1.,0.));
#1764=DIRECTION('',(1.,0.,0.));
#1765=DIRECTION('',(0.,-1.,0.));
#1766=DIRECTION('',(0.,-1.,0.));
#1767=DIRECTION('',(0.,0.,-1.));
#1768=DIRECTION('',(0.,1.,0.));
#1769=DIRECTION('',(0.,-1.,0.));
#1770=DIRECTION('',(0.,-1.,0.));
#1771=DIRECTION('',(1.,0.,0.));
#1772=DIRECTION('',(0.,-1.,0.));
#1773=DIRECTION('',(1.,0.,2.89120579329469E-16));
#1774=DIRECTION('',(-2.89120579329469E-16,0.,1.));
#1775=DIRECTION('',(0.,-1.,0.));
#1776=DIRECTION('',(0.,-1.,0.));
#1777=DIRECTION('',(1.,0.,0.));
#1778=DIRECTION('',(0.,-1.,0.));
#1779=DIRECTION('',(0.,0.,-1.));
#1780=DIRECTION('',(0.,1.,0.));
#1781=DIRECTION('',(0.,-1.,0.));
#1782=DIRECTION('',(0.,-1.,0.));
#1783=DIRECTION('',(1.,0.,0.));
#1784=DIRECTION('',(0.,-1.,0.));
#1785=DIRECTION('',(1.,0.,0.));
#1786=DIRECTION('',(0.,1.,0.));
#1787=DIRECTION('',(0.,-1.,0.));
#1788=DIRECTION('',(1.,0.,0.));
#1789=DIRECTION('',(0.,-1.,0.));
#1790=DIRECTION('',(0.,-1.,0.));
#1791=DIRECTION('',(-0.892003374828503,0.,-0.452028737244174));
#1792=DIRECTION('',(0.452028737244174,0.,-0.892003374828503));
#1793=DIRECTION('',(0.,-1.,0.));
#1794=DIRECTION('',(0.,-1.,0.));
#1795=DIRECTION('',(1.,0.,0.));
#1796=DIRECTION('',(0.,-1.,0.));
#1797=DIRECTION('',(-1.,0.,-1.76015730199484E-16));
#1798=DIRECTION('',(1.76015730199484E-16,0.,-1.));
#1799=DIRECTION('',(0.,-1.,0.));
#1800=DIRECTION('',(0.,-1.,0.));
#1801=DIRECTION('',(1.,0.,0.));
#1802=DIRECTION('',(0.,-1.,0.));
#1803=DIRECTION('',(0.,0.,-1.));
#1804=DIRECTION('',(0.,1.,0.));
#1805=DIRECTION('',(1.,0.,0.));
#1806=DIRECTION('',(0.,1.,0.));
#1807=DIRECTION('',(0.,-1.,0.));
#1808=DIRECTION('',(0.,-1.,0.));
#1809=DIRECTION('',(0.,-1.,0.));
#1810=DIRECTION('',(1.,0.,0.));
#1811=DIRECTION('',(0.,-1.,0.));
#1812=DIRECTION('',(0.,0.,-1.));
#1813=DIRECTION('',(0.,1.,0.));
#1814=DIRECTION('',(0.,-1.,0.));
#1815=DIRECTION('',(0.,-1.,0.));
#1816=DIRECTION('',(1.,0.,0.));
#1817=DIRECTION('',(0.,-1.,0.));
#1818=DIRECTION('',(1.,0.,2.89120579329469E-16));
#1819=DIRECTION('',(-2.89120579329469E-16,0.,1.));
#1820=DIRECTION('',(0.,-1.,0.));
#1821=DIRECTION('',(0.,-1.,0.));
#1822=DIRECTION('',(1.,0.,0.));
#1823=DIRECTION('',(0.,-1.,0.));
#1824=DIRECTION('',(0.,0.,-1.));
#1825=DIRECTION('',(0.,1.,0.));
#1826=DIRECTION('',(0.,-1.,0.));
#1827=DIRECTION('',(0.,-1.,0.));
#1828=DIRECTION('',(1.,0.,0.));
#1829=DIRECTION('',(0.,0.,-1.));
#1830=DIRECTION('',(0.,1.,0.));
#1831=DIRECTION('',(0.,-1.,0.));
#1832=DIRECTION('',(0.,-1.,0.));
#1833=DIRECTION('',(0.,-1.,0.));
#1834=DIRECTION('',(1.,0.,0.));
#1835=DIRECTION('',(0.,-1.,0.));
#1836=DIRECTION('',(-1.,0.,-1.76015730199484E-16));
#1837=DIRECTION('',(1.76015730199484E-16,0.,-1.));
#1838=DIRECTION('',(0.,-1.,0.));
#1839=DIRECTION('',(0.,-1.,0.));
#1840=DIRECTION('',(1.,0.,0.));
#1841=DIRECTION('',(0.,-1.,0.));
#1842=DIRECTION('',(-0.892003374828503,0.,-0.452028737244174));
#1843=DIRECTION('',(0.452028737244174,0.,-0.892003374828503));
#1844=DIRECTION('',(0.,-1.,0.));
#1845=DIRECTION('',(0.,-1.,0.));
#1846=DIRECTION('',(1.,0.,0.));
#1847=CARTESIAN_POINT('',(0.,0.,0.));
#1848=CARTESIAN_POINT('',(0.,0.0215,-0.11));
#1849=CARTESIAN_POINT('',(-0.014,0.0215,-0.11));
#1850=CARTESIAN_POINT('',(-0.014,0.0215,-0.012));
#1851=CARTESIAN_POINT('',(-0.014,0.0215,-0.006));
#1852=CARTESIAN_POINT('',(-0.012,0.0215,-0.012));
#1853=CARTESIAN_POINT('',(-0.012,0.0215,-0.014));
#1854=CARTESIAN_POINT('',(0.,0.0215,-0.014));
#1855=CARTESIAN_POINT('',(0.012,0.0215,-0.014));
#1856=CARTESIAN_POINT('',(0.012,0.0215,-0.012));
#1857=CARTESIAN_POINT('',(0.014,0.0215,-0.012));
#1858=CARTESIAN_POINT('',(0.014,0.0215,-0.11));
#1859=CARTESIAN_POINT('',(0.014,0.0215,-0.006));
#1860=CARTESIAN_POINT('',(0.012,0.0215,-0.006));
#1861=CARTESIAN_POINT('',(0.012,0.0215,-0.004));
#1862=CARTESIAN_POINT('',(0.,0.0215,-0.004));
#1863=CARTESIAN_POINT('',(-0.012,0.0215,-0.004));
#1864=CARTESIAN_POINT('',(-0.012,0.0215,-0.006));
#1865=CARTESIAN_POINT('',(0.0203863562061826,0.0215,-0.0996690762468669));
#1866=CARTESIAN_POINT('',(-0.021,0.0215,-0.018));
#1867=CARTESIAN_POINT('',(0.0165,0.0215,-0.092));
#1868=CARTESIAN_POINT('',(-0.021,0.0215,-0.11));
#1869=CARTESIAN_POINT('',(-0.021,0.0215,0.));
#1870=CARTESIAN_POINT('',(0.,0.0215,0.));
#1871=CARTESIAN_POINT('',(0.021,0.0215,0.));
#1872=CARTESIAN_POINT('',(0.021,0.0215,-0.11));
#1873=CARTESIAN_POINT('',(0.021,0.0215,-0.11));
#1874=CARTESIAN_POINT('',(0.,0.0215,-0.11));
#1875=CARTESIAN_POINT('',(0.0165,0.0215,-0.11));
#1876=CARTESIAN_POINT('',(0.0165,0.0215,-0.11));
#1877=CARTESIAN_POINT('',(0.,0.0215,-0.024));
#1878=CARTESIAN_POINT('',(-0.00797737001254425,0.0215,-0.024));
#1879=CARTESIAN_POINT('',(0.012,0.0215,-0.024));
#1880=CARTESIAN_POINT('',(-0.00797737001254425,0.0215,-0.026));
#1881=CARTESIAN_POINT('',(-0.00976137676220126,0.0215,-0.0269040574744883));
#1882=CARTESIAN_POINT('',(0.0257383764551536,0.0215,-0.0969569038234019));
#1883=CARTESIAN_POINT('',(0.010215993250343,0.0215,-0.0663260676325757));
#1884=CARTESIAN_POINT('',(0.012,0.0215,-0.0654220101580873));
#1885=CARTESIAN_POINT('',(0.014,0.0215,-0.0654220101580873));
#1886=CARTESIAN_POINT('',(0.014,0.0215,-0.11));
#1887=CARTESIAN_POINT('',(0.014,0.0215,-0.026));
#1888=CARTESIAN_POINT('',(0.012,0.0215,-0.026));
#1889=CARTESIAN_POINT('',(0.,-0.0215,-0.11));
#1890=CARTESIAN_POINT('',(-0.021,-0.0215,-0.11));
#1891=CARTESIAN_POINT('',(-0.021,-0.0215,-0.018));
#1892=CARTESIAN_POINT('',(-0.021,-0.0215,0.));
#1893=CARTESIAN_POINT('',(-0.023966871299357,-0.0215,-0.0121453739692688));
#1894=CARTESIAN_POINT('',(0.0165,-0.0215,-0.092));
#1895=CARTESIAN_POINT('',(0.0165,-0.0215,0.));
#1896=CARTESIAN_POINT('',(0.0165,-0.0215,-0.11));
#1897=CARTESIAN_POINT('',(0.,-0.0215,-0.11));
#1898=CARTESIAN_POINT('',(0.021,-0.0215,-0.11));
#1899=CARTESIAN_POINT('',(0.021,-0.0215,-0.11));
#1900=CARTESIAN_POINT('',(0.021,-0.0215,0.));
#1901=CARTESIAN_POINT('',(0.,-0.0215,0.));
#1902=CARTESIAN_POINT('',(-0.012,-0.0215,-0.012));
#1903=CARTESIAN_POINT('',(-0.014,-0.0215,-0.012));
#1904=CARTESIAN_POINT('',(-0.012,-0.0215,-0.014));
#1905=CARTESIAN_POINT('',(-0.014,-0.0215,-0.012));
#1906=CARTESIAN_POINT('',(-0.014,-0.0215,-0.006));
#1907=CARTESIAN_POINT('',(-0.012,-0.0215,-0.006));
#1908=CARTESIAN_POINT('',(-0.012,-0.0215,-0.004));
#1909=CARTESIAN_POINT('',(-0.012,-0.0215,-0.004));
#1910=CARTESIAN_POINT('',(0.012,-0.0215,-0.004));
#1911=CARTESIAN_POINT('',(0.012,-0.0215,-0.006));
#1912=CARTESIAN_POINT('',(0.014,-0.0215,-0.006));
#1913=CARTESIAN_POINT('',(0.014,-0.0215,-0.012));
#1914=CARTESIAN_POINT('',(0.014,-0.0215,-0.012));
#1915=CARTESIAN_POINT('',(0.012,-0.0215,-0.012));
#1916=CARTESIAN_POINT('',(0.012,-0.0215,-0.014));
#1917=CARTESIAN_POINT('',(-0.012,-0.0215,-0.014));
#1918=CARTESIAN_POINT('',(-0.00797737001254425,-0.0215,-0.026));
#1919=CARTESIAN_POINT('',(-0.00797737001254425,-0.0215,-0.024));
#1920=CARTESIAN_POINT('',(-0.00976137676220126,-0.0215,-0.0269040574744883));
#1921=CARTESIAN_POINT('',(0.,-0.0215,-0.024));
#1922=CARTESIAN_POINT('',(0.012,-0.0215,-0.024));
#1923=CARTESIAN_POINT('',(0.012,-0.0215,-0.026));
#1924=CARTESIAN_POINT('',(0.014,-0.0215,-0.026));
#1925=CARTESIAN_POINT('',(0.014,-0.0215,2.46422022279278E-18));
#1926=CARTESIAN_POINT('',(0.014,-0.0215,-0.0654220101580873));
#1927=CARTESIAN_POINT('',(0.012,-0.0215,-0.0654220101580873));
#1928=CARTESIAN_POINT('',(0.010215993250343,-0.0215,-0.0663260676325757));
#1929=CARTESIAN_POINT('',(-0.018614851050386,-0.0215,-0.00943320154580373));
#1930=CARTESIAN_POINT('',(0.,-0.0165,-0.11));
#1931=CARTESIAN_POINT('',(-0.014,-0.0165,-0.11));
#1932=CARTESIAN_POINT('',(-0.014,-0.0165,-0.012));
#1933=CARTESIAN_POINT('',(-0.014,-0.0165,-0.006));
#1934=CARTESIAN_POINT('',(-0.012,-0.0165,-0.012));
#1935=CARTESIAN_POINT('',(-0.012,-0.0165,-0.014));
#1936=CARTESIAN_POINT('',(0.,-0.0165,-0.014));
#1937=CARTESIAN_POINT('',(0.012,-0.0165,-0.014));
#1938=CARTESIAN_POINT('',(0.012,-0.0165,-0.012));
#1939=CARTESIAN_POINT('',(0.014,-0.0165,-0.012));
#1940=CARTESIAN_POINT('',(0.014,-0.0165,-0.11));
#1941=CARTESIAN_POINT('',(0.014,-0.0165,-0.006));
#1942=CARTESIAN_POINT('',(0.012,-0.0165,-0.006));
#1943=CARTESIAN_POINT('',(0.012,-0.0165,-0.004));
#1944=CARTESIAN_POINT('',(0.,-0.0165,-0.004));
#1945=CARTESIAN_POINT('',(-0.012,-0.0165,-0.004));
#1946=CARTESIAN_POINT('',(-0.012,-0.0165,-0.006));
#1947=CARTESIAN_POINT('',(0.0203863562061826,-0.0165,-0.0996690762468669));
#1948=CARTESIAN_POINT('',(-0.021,-0.0165,-0.018));
#1949=CARTESIAN_POINT('',(0.0165,-0.0165,-0.092));
#1950=CARTESIAN_POINT('',(-0.021,-0.0165,-0.11));
#1951=CARTESIAN_POINT('',(-0.021,-0.0165,0.));
#1952=CARTESIAN_POINT('',(0.,-0.0165,0.));
#1953=CARTESIAN_POINT('',(0.0165,-0.0165,0.));
#1954=CARTESIAN_POINT('',(0.0165,-0.0165,-0.11));
#1955=CARTESIAN_POINT('',(0.,-0.0165,-0.024));
#1956=CARTESIAN_POINT('',(-0.00797737001254425,-0.0165,-0.024));
#1957=CARTESIAN_POINT('',(0.012,-0.0165,-0.024));
#1958=CARTESIAN_POINT('',(-0.00797737001254425,-0.0165,-0.026));
#1959=CARTESIAN_POINT('',(-0.00976137676220126,-0.0165,-0.0269040574744883));
#1960=CARTESIAN_POINT('',(0.0257383764551536,-0.0165,-0.0969569038234019));
#1961=CARTESIAN_POINT('',(0.010215993250343,-0.0165,-0.0663260676325757));
#1962=CARTESIAN_POINT('',(0.012,-0.0165,-0.0654220101580873));
#1963=CARTESIAN_POINT('',(0.014,-0.0165,-0.0654220101580873));
#1964=CARTESIAN_POINT('',(0.014,-0.0165,-0.11));
#1965=CARTESIAN_POINT('',(0.014,-0.0165,-0.026));
#1966=CARTESIAN_POINT('',(0.012,-0.0165,-0.026));
#1967=CARTESIAN_POINT('',(0.,0.0165,-0.11));
#1968=CARTESIAN_POINT('',(-0.021,0.0165,-0.11));
#1969=CARTESIAN_POINT('',(-0.021,0.0165,-0.018));
#1970=CARTESIAN_POINT('',(-0.021,0.0165,0.));
#1971=CARTESIAN_POINT('',(0.0203863562061826,0.0165,-0.0996690762468669));
#1972=CARTESIAN_POINT('',(0.0165,0.0165,-0.092));
#1973=CARTESIAN_POINT('',(0.0165,0.0165,-0.11));
#1974=CARTESIAN_POINT('',(0.0165,0.0165,0.));
#1975=CARTESIAN_POINT('',(0.,0.0165,0.));
#1976=CARTESIAN_POINT('',(-0.012,0.0165,-0.012));
#1977=CARTESIAN_POINT('',(-0.014,0.0165,-0.012));
#1978=CARTESIAN_POINT('',(-0.012,0.0165,-0.014));
#1979=CARTESIAN_POINT('',(-0.014,0.0165,-0.11));
#1980=CARTESIAN_POINT('',(-0.014,0.0165,-0.006));
#1981=CARTESIAN_POINT('',(-0.012,0.0165,-0.006));
#1982=CARTESIAN_POINT('',(-0.012,0.0165,-0.004));
#1983=CARTESIAN_POINT('',(0.,0.0165,-0.004));
#1984=CARTESIAN_POINT('',(0.012,0.0165,-0.004));
#1985=CARTESIAN_POINT('',(0.012,0.0165,-0.006));
#1986=CARTESIAN_POINT('',(0.014,0.0165,-0.006));
#1987=CARTESIAN_POINT('',(0.014,0.0165,-0.11));
#1988=CARTESIAN_POINT('',(0.014,0.0165,-0.012));
#1989=CARTESIAN_POINT('',(0.012,0.0165,-0.012));
#1990=CARTESIAN_POINT('',(0.012,0.0165,-0.014));
#1991=CARTESIAN_POINT('',(0.,0.0165,-0.014));
#1992=CARTESIAN_POINT('',(-0.00797737001254425,0.0165,-0.026));
#1993=CARTESIAN_POINT('',(-0.00797737001254425,0.0165,-0.024));
#1994=CARTESIAN_POINT('',(-0.00976137676220126,0.0165,-0.0269040574744883));
#1995=CARTESIAN_POINT('',(0.,0.0165,-0.024));
#1996=CARTESIAN_POINT('',(0.012,0.0165,-0.024));
#1997=CARTESIAN_POINT('',(0.012,0.0165,-0.026));
#1998=CARTESIAN_POINT('',(0.014,0.0165,-0.026));
#1999=CARTESIAN_POINT('',(0.014,0.0165,-0.11));
#2000=CARTESIAN_POINT('',(0.014,0.0165,-0.0654220101580873));
#2001=CARTESIAN_POINT('',(0.012,0.0165,-0.0654220101580873));
#2002=CARTESIAN_POINT('',(0.010215993250343,0.0165,-0.0663260676325757));
#2003=CARTESIAN_POINT('',(0.0257383764551536,0.0165,-0.0969569038234019));
#2004=CARTESIAN_POINT('',(-0.021,-3.0046291974743E-18,0.0045));
#2005=CARTESIAN_POINT('',(-0.021,0.039,-0.018));
#2006=CARTESIAN_POINT('',(-0.021,-3.0046291974743E-18,0.));
#2007=CARTESIAN_POINT('',(-0.021,-0.03286335345031,0.));
#2008=CARTESIAN_POINT('',(-0.021,-0.03286335345031,0.0045));
#2009=CARTESIAN_POINT('',(-0.021,-0.03286335345031,0.0045));
#2010=CARTESIAN_POINT('',(-0.021,-3.0046291974743E-18,0.0045));
#2011=CARTESIAN_POINT('',(-0.021,0.03286335345031,0.0045));
#2012=CARTESIAN_POINT('',(-0.021,0.03286335345031,0.0045));
#2013=CARTESIAN_POINT('',(-0.021,0.03286335345031,0.));
#2014=CARTESIAN_POINT('',(-0.021,-3.0046291974743E-18,0.));
#2015=CARTESIAN_POINT('',(-0.021,0.039,-0.018));
#2016=CARTESIAN_POINT('',(-0.021,-3.0046291974743E-18,0.));
#2017=CARTESIAN_POINT('',(0.,0.,0.));
#2018=CARTESIAN_POINT('',(0.0165,0.,0.));
#2019=CARTESIAN_POINT('',(0.,0.,0.));
#2020=CARTESIAN_POINT('',(-0.0104293235601544,0.0320981574249615,0.));
#2021=CARTESIAN_POINT('',(-0.0104293235601544,0.0299981574249615,0.));
#2022=CARTESIAN_POINT('',(0.0104293235601546,0.0320981574249614,0.));
#2023=CARTESIAN_POINT('',(0.0104293235601546,0.0299981574249614,0.));
#2024=CARTESIAN_POINT('',(0.,0.,0.));
#2025=CARTESIAN_POINT('',(0.021,0.03286335345031,0.));
#2026=CARTESIAN_POINT('',(0.021,2.00308613164953E-18,0.));
#2027=CARTESIAN_POINT('',(0.,0.,0.0045));
#2028=CARTESIAN_POINT('',(0.,0.,0.0045));
#2029=CARTESIAN_POINT('',(0.021,0.03286335345031,0.0045));
#2030=CARTESIAN_POINT('',(0.021,0.03286335345031,0.0045));
#2031=CARTESIAN_POINT('',(0.,0.,0.0045));
#2032=CARTESIAN_POINT('',(0.,0.,0.));
#2033=CARTESIAN_POINT('',(0.021,-0.03286335345031,0.));
#2034=CARTESIAN_POINT('',(0.021,-0.03286335345031,0.0045));
#2035=CARTESIAN_POINT('',(0.021,-0.03286335345031,0.0045));
#2036=CARTESIAN_POINT('',(0.,0.,0.0045));
#2037=CARTESIAN_POINT('',(0.0104293235601546,0.0320981574249614,0.0045));
#2038=CARTESIAN_POINT('',(0.0104293235601546,0.0320981574249614,0.0045));
#2039=CARTESIAN_POINT('',(0.0104293235601546,0.0299981574249614,0.0045));
#2040=CARTESIAN_POINT('',(0.0104293235601542,-0.0320981574249615,0.0045));
#2041=CARTESIAN_POINT('',(0.0104293235601542,-0.0320981574249615,0.0045));
#2042=CARTESIAN_POINT('',(0.0104293235601542,-0.0341981574249615,0.0045));
#2043=CARTESIAN_POINT('',(0.0104293235601542,-0.0320981574249615,0.));
#2044=CARTESIAN_POINT('',(0.0104293235601542,-0.0341981574249615,0.));
#2045=CARTESIAN_POINT('',(-0.0104293235601548,-0.0320981574249613,0.0045));
#2046=CARTESIAN_POINT('',(-0.0104293235601548,-0.0320981574249613,0.0045));
#2047=CARTESIAN_POINT('',(-0.0104293235601548,-0.0341981574249613,0.0045));
#2048=CARTESIAN_POINT('',(-0.0104293235601548,-0.0320981574249613,0.));
#2049=CARTESIAN_POINT('',(-0.0104293235601548,-0.0341981574249613,0.));
#2050=CARTESIAN_POINT('',(0.021,2.00308613164953E-18,0.0045));
#2051=CARTESIAN_POINT('',(0.021,0.0105,-0.012));
#2052=CARTESIAN_POINT('',(0.021,0.0125,-0.012));
#2053=CARTESIAN_POINT('',(0.021,0.0105,-0.014));
#2054=CARTESIAN_POINT('',(0.021,0.0105,-0.014));
#2055=CARTESIAN_POINT('',(0.021,-0.0105,-0.014));
#2056=CARTESIAN_POINT('',(0.021,-0.0105,-0.012));
#2057=CARTESIAN_POINT('',(0.021,-0.0125,-0.012));
#2058=CARTESIAN_POINT('',(0.021,-0.0125,-0.006));
#2059=CARTESIAN_POINT('',(0.021,-0.0125,-0.006));
#2060=CARTESIAN_POINT('',(0.021,-0.0105,-0.006));
#2061=CARTESIAN_POINT('',(0.021,-0.0105,-0.004));
#2062=CARTESIAN_POINT('',(0.021,0.0105,-0.004));
#2063=CARTESIAN_POINT('',(0.021,0.0105,-0.004));
#2064=CARTESIAN_POINT('',(0.021,0.0105,-0.006));
#2065=CARTESIAN_POINT('',(0.021,0.0125,-0.006));
#2066=CARTESIAN_POINT('',(0.021,0.0125,-0.006));
#2067=CARTESIAN_POINT('',(0.021,2.00308613164953E-18,-0.102));
#2068=CARTESIAN_POINT('',(0.021,0.0015,-0.102));
#2069=CARTESIAN_POINT('',(0.021,2.00308613164953E-18,-0.0945));
#2070=CARTESIAN_POINT('',(0.021,0.0015,-0.0945));
#2071=CARTESIAN_POINT('',(0.021,2.00308613164953E-18,-0.0745));
#2072=CARTESIAN_POINT('',(0.021,0.0015,-0.0745));
#2073=CARTESIAN_POINT('',(0.021,2.00308613164953E-18,-0.062));
#2074=CARTESIAN_POINT('',(0.021,0.0015,-0.062));
#2075=CARTESIAN_POINT('',(0.021,-0.003,0.0025));
#2076=CARTESIAN_POINT('',(0.021,-0.003,0.0025));
#2077=CARTESIAN_POINT('',(0.021,-0.003,0.0045));
#2078=CARTESIAN_POINT('',(0.021,2.00308613164953E-18,0.0045));
#2079=CARTESIAN_POINT('',(0.021,2.00308613164953E-18,0.));
#2080=CARTESIAN_POINT('',(0.021,2.00308613164953E-18,-0.11));
#2081=CARTESIAN_POINT('',(0.021,2.00308613164953E-18,0.0045));
#2082=CARTESIAN_POINT('',(0.021,0.003,0.0045));
#2083=CARTESIAN_POINT('',(0.021,0.003,0.0025));
#2084=CARTESIAN_POINT('',(0.021,0.003,0.0025));
#2085=CARTESIAN_POINT('',(0.021,0.003,0.0025));
#2086=CARTESIAN_POINT('',(-0.0104293235601544,0.0320981574249615,0.0045));
#2087=CARTESIAN_POINT('',(-0.0104293235601544,0.0320981574249615,0.0045));
#2088=CARTESIAN_POINT('',(-0.0104293235601544,0.0299981574249615,0.0045));
#2089=CARTESIAN_POINT('',(0.,0.,0.0045));
#2090=CARTESIAN_POINT('',(0.021,-0.003,0.0045));
#2091=CARTESIAN_POINT('',(0.0152069063257455,-0.003,0.0045));
#2092=CARTESIAN_POINT('',(0.,0.,0.0045));
#2093=CARTESIAN_POINT('',(0.0152069063257455,0.003,0.0045));
#2094=CARTESIAN_POINT('',(0.021,0.003,0.0045));
#2095=CARTESIAN_POINT('',(0.,0.,0.));
#2096=CARTESIAN_POINT('',(0.,0.,0.0035));
#2097=CARTESIAN_POINT('',(0.0152069063257455,-0.003,0.0035));
#2098=CARTESIAN_POINT('',(0.0152069063257455,-0.003,0.0035));
#2099=CARTESIAN_POINT('',(0.,0.,0.0035));
#2100=CARTESIAN_POINT('',(0.0152069063257455,0.003,0.0035));
#2101=CARTESIAN_POINT('',(0.0152069063257455,0.003,0.0035));
#2102=CARTESIAN_POINT('',(0.,0.,0.0035));
#2103=CARTESIAN_POINT('',(4.16333634234434E-19,-0.003,0.0035));
#2104=CARTESIAN_POINT('',(-0.004,-0.003,0.0035));
#2105=CARTESIAN_POINT('',(-0.004,5.78241158658936E-19,0.0035));
#2106=CARTESIAN_POINT('',(-0.004,0.003,0.0035));
#2107=CARTESIAN_POINT('',(-3.6429192995513E-19,0.003,0.0035));
#2108=CARTESIAN_POINT('',(0.021,-0.003,0.0025));
#2109=CARTESIAN_POINT('',(0.021,-0.003,0.0025));
#2110=CARTESIAN_POINT('',(-0.004,-0.003,0.0025));
#2111=CARTESIAN_POINT('',(-0.004,-0.003,0.0025));
#2112=CARTESIAN_POINT('',(0.021,0.003,0.0025));
#2113=CARTESIAN_POINT('',(-0.004,0.003,0.0025));
#2114=CARTESIAN_POINT('',(-0.004,0.003,0.0025));
#2115=CARTESIAN_POINT('',(0.021,0.003,0.0025));
#2116=CARTESIAN_POINT('',(-0.004,0.003,0.0025));
#2117=CARTESIAN_POINT('',(-0.004,0.003,0.0025));
#2118=CARTESIAN_POINT('',(0.,0.,0.0025));
#2119=CARTESIAN_POINT('',(0.0165,0.,-0.11));
#2120=CARTESIAN_POINT('',(0.0165,0.0105,-0.012));
#2121=CARTESIAN_POINT('',(0.0165,0.0125,-0.012));
#2122=CARTESIAN_POINT('',(0.0165,0.0105,-0.014));
#2123=CARTESIAN_POINT('',(0.0165,0.0125,-0.006));
#2124=CARTESIAN_POINT('',(0.0165,0.0125,-0.006));
#2125=CARTESIAN_POINT('',(0.0165,0.0105,-0.006));
#2126=CARTESIAN_POINT('',(0.0165,0.0105,-0.004));
#2127=CARTESIAN_POINT('',(0.0165,0.0105,-0.004));
#2128=CARTESIAN_POINT('',(0.0165,-0.0105,-0.004));
#2129=CARTESIAN_POINT('',(0.0165,-0.0105,-0.006));
#2130=CARTESIAN_POINT('',(0.0165,-0.0125,-0.006));
#2131=CARTESIAN_POINT('',(0.0165,-0.0125,-0.006));
#2132=CARTESIAN_POINT('',(0.0165,-0.0125,-0.012));
#2133=CARTESIAN_POINT('',(0.0165,-0.0105,-0.012));
#2134=CARTESIAN_POINT('',(0.0165,-0.0105,-0.014));
#2135=CARTESIAN_POINT('',(0.0165,0.0105,-0.014));
#2136=CARTESIAN_POINT('',(0.0165,1.5738533891532E-18,-0.102));
#2137=CARTESIAN_POINT('',(0.0165,-0.0015,-0.102));
#2138=CARTESIAN_POINT('',(0.0165,1.5738533891532E-18,-0.0945));
#2139=CARTESIAN_POINT('',(0.0165,-0.0015,-0.0945));
#2140=CARTESIAN_POINT('',(0.0165,1.5738533891532E-18,-0.0745));
#2141=CARTESIAN_POINT('',(0.0165,-0.0015,-0.0745));
#2142=CARTESIAN_POINT('',(0.0165,1.5738533891532E-18,-0.062));
#2143=CARTESIAN_POINT('',(0.0165,-0.0015,-0.062));
#2144=CARTESIAN_POINT('',(0.0165,0.,-0.11));
#2145=CARTESIAN_POINT('',(0.0165,0.039,-0.092));
#2146=CARTESIAN_POINT('',(0.0165,0.039,-0.092));
#2147=CARTESIAN_POINT('',(0.,0.,-0.11));
#2148=CARTESIAN_POINT('',(-0.023966871299357,0.039,-0.0121453739692688));
#2149=CARTESIAN_POINT('',(-0.023966871299357,0.039,-0.0121453739692688));
#2150=CARTESIAN_POINT('',(-0.021001,-2.00318151670342E-18,-0.062));
#2151=CARTESIAN_POINT('',(-0.021001,-2.00318151670342E-18,-0.0745));
#2152=CARTESIAN_POINT('',(-0.021001,-2.00318151670342E-18,-0.0945));
#2153=CARTESIAN_POINT('',(-0.021001,-2.00318151670342E-18,-0.102));
#2154=CARTESIAN_POINT('',(0.021001,0.0105,-0.012));
#2155=CARTESIAN_POINT('',(0.021001,0.0125,-0.012));
#2156=CARTESIAN_POINT('',(0.021001,0.0105,-0.014));
#2157=CARTESIAN_POINT('',(0.021001,0.0125,-0.006));
#2158=CARTESIAN_POINT('',(0.021001,0.0125,-0.006));
#2159=CARTESIAN_POINT('',(0.021001,0.0105,-0.006));
#2160=CARTESIAN_POINT('',(0.021001,0.0105,-0.004));
#2161=CARTESIAN_POINT('',(0.021001,0.0105,-0.004));
#2162=CARTESIAN_POINT('',(0.021001,-0.0105,-0.004));
#2163=CARTESIAN_POINT('',(0.021001,-0.0105,-0.006));
#2164=CARTESIAN_POINT('',(0.021001,-0.0125,-0.006));
#2165=CARTESIAN_POINT('',(0.021001,-0.0125,-0.006));
#2166=CARTESIAN_POINT('',(0.021001,-0.0125,-0.012));
#2167=CARTESIAN_POINT('',(0.021001,-0.0105,-0.012));
#2168=CARTESIAN_POINT('',(0.021001,-0.0105,-0.014));
#2169=CARTESIAN_POINT('',(0.021001,0.0105,-0.014));
#2170=CARTESIAN_POINT('',(-0.012,0.0885,-0.012));
#2171=CARTESIAN_POINT('',(-0.014,0.0885,-0.012));
#2172=CARTESIAN_POINT('',(-0.012,0.0885,-0.014));
#2173=CARTESIAN_POINT('',(-0.012,0.0885,-0.014));
#2174=CARTESIAN_POINT('',(0.012,0.0885,-0.014));
#2175=CARTESIAN_POINT('',(0.012,0.0885,-0.012));
#2176=CARTESIAN_POINT('',(0.014,0.0885,-0.012));
#2177=CARTESIAN_POINT('',(0.014,0.0885,-0.012));
#2178=CARTESIAN_POINT('',(0.014,0.0885,-0.006));
#2179=CARTESIAN_POINT('',(0.012,0.0885,-0.006));
#2180=CARTESIAN_POINT('',(0.012,0.0885,-0.004));
#2181=CARTESIAN_POINT('',(-0.012,0.0885,-0.004));
#2182=CARTESIAN_POINT('',(-0.012,0.0885,-0.004));
#2183=CARTESIAN_POINT('',(-0.012,0.0885,-0.006));
#2184=CARTESIAN_POINT('',(-0.014,0.0885,-0.006));
#2185=CARTESIAN_POINT('',(-0.014,0.0885,-0.012));
#2186=CARTESIAN_POINT('',(-0.00797737001254425,0.0885,-0.026));
#2187=CARTESIAN_POINT('',(-0.00797737001254425,0.0885,-0.024));
#2188=CARTESIAN_POINT('',(-0.00976137676220126,0.0885,-0.0269040574744883));
#2189=CARTESIAN_POINT('',(-0.018614851050386,0.0885,-0.00943320154580373));
#2190=CARTESIAN_POINT('',(0.010215993250343,0.0885,-0.0663260676325757));
#2191=CARTESIAN_POINT('',(0.012,0.0885,-0.0654220101580873));
#2192=CARTESIAN_POINT('',(0.014,0.0885,-0.0654220101580873));
#2193=CARTESIAN_POINT('',(0.014,0.0885,2.46422022279278E-18));
#2194=CARTESIAN_POINT('',(0.014,0.0885,-0.026));
#2195=CARTESIAN_POINT('',(0.012,0.0885,-0.026));
#2196=CARTESIAN_POINT('',(0.012,0.0885,-0.024));
#2197=CARTESIAN_POINT('',(0.,0.0885,-0.024));
#2198=CARTESIAN_POINT('',(-0.014,0.0885,-0.012));
#2199=CARTESIAN_POINT('',(-0.014,0.0885,-0.006));
#2200=CARTESIAN_POINT('',(-0.014,0.0885,-0.012));
#2201=CARTESIAN_POINT('',(-0.012,0.0885,-0.006));
#2202=CARTESIAN_POINT('',(-0.012,0.0885,-0.004));
#2203=CARTESIAN_POINT('',(-0.012,0.0885,-0.004));
#2204=CARTESIAN_POINT('',(0.012,0.0885,-0.004));
#2205=CARTESIAN_POINT('',(0.012,0.0885,-0.006));
#2206=CARTESIAN_POINT('',(0.014,0.0885,-0.006));
#2207=CARTESIAN_POINT('',(0.014,0.0885,-0.012));
#2208=CARTESIAN_POINT('',(0.014,0.0885,-0.012));
#2209=CARTESIAN_POINT('',(0.012,0.0885,-0.012));
#2210=CARTESIAN_POINT('',(0.012,0.0885,-0.014));
#2211=CARTESIAN_POINT('',(-0.012,0.0885,-0.014));
#2212=CARTESIAN_POINT('',(-0.012,0.0885,-0.014));
#2213=CARTESIAN_POINT('',(-0.012,0.0885,-0.012));
#2214=CARTESIAN_POINT('',(0.,0.0885,-0.024));
#2215=CARTESIAN_POINT('',(0.012,0.0885,-0.024));
#2216=CARTESIAN_POINT('',(-0.00797737001254425,0.0885,-0.024));
#2217=CARTESIAN_POINT('',(0.012,0.0885,-0.026));
#2218=CARTESIAN_POINT('',(0.014,0.0885,-0.026));
#2219=CARTESIAN_POINT('',(0.014,0.0885,2.46422022279278E-18));
#2220=CARTESIAN_POINT('',(0.014,0.0885,-0.0654220101580873));
#2221=CARTESIAN_POINT('',(0.012,0.0885,-0.0654220101580873));
#2222=CARTESIAN_POINT('',(0.010215993250343,0.0885,-0.0663260676325757));
#2223=CARTESIAN_POINT('',(-0.018614851050386,0.0885,-0.00943320154580373));
#2224=CARTESIAN_POINT('',(-0.00976137676220126,0.0885,-0.0269040574744883));
#2225=CARTESIAN_POINT('',(-0.00797737001254425,0.0885,-0.026));
#2226=MECHANICAL_DESIGN_GEOMETRIC_PRESENTATION_REPRESENTATION('',(#1335),
#2227);
#2227=(
GEOMETRIC_REPRESENTATION_CONTEXT(3)
GLOBAL_UNCERTAINTY_ASSIGNED_CONTEXT((#2228))
GLOBAL_UNIT_ASSIGNED_CONTEXT((#2231,#2230,#2229))
REPRESENTATION_CONTEXT('Part 1','TOP_LEVEL_ASSEMBLY_PART')
);
#2228=UNCERTAINTY_MEASURE_WITH_UNIT(LENGTH_MEASURE(5.E-6),#2231,
'DISTANCE_ACCURACY_VALUE','Maximum Tolerance applied to model');
#2229=(
NAMED_UNIT(*)
SI_UNIT($,.STERADIAN.)
SOLID_ANGLE_UNIT()
);
#2230=(
NAMED_UNIT(*)
PLANE_ANGLE_UNIT()
SI_UNIT($,.RADIAN.)
);
#2231=(
LENGTH_UNIT()
NAMED_UNIT(*)
SI_UNIT($,.METRE.)
);
#2232=PRODUCT_DEFINITION_SHAPE('','',#2233);
#2233=PRODUCT_DEFINITION('','',#2235,#2234);
#2234=PRODUCT_DEFINITION_CONTEXT('',#2241,'design');
#2235=PRODUCT_DEFINITION_FORMATION_WITH_SPECIFIED_SOURCE('','',#2237,
 .NOT_KNOWN.);
#2236=PRODUCT_RELATED_PRODUCT_CATEGORY('','',(#2237));
#2237=PRODUCT('Part 1','Part 1','Part 1',(#2239));
#2238=PRODUCT_CATEGORY('','');
#2239=PRODUCT_CONTEXT('',#2241,'mechanical');
#2240=APPLICATION_PROTOCOL_DEFINITION('international standard',
'ap242_managed_model_based_3d_engineering',2011,#2241);
#2241=APPLICATION_CONTEXT('managed model based 3d engineering');
ENDSEC;
END-ISO-10303-21;
